<svg width="66" height="66" viewBox="0 0 66 66" fill="none" xmlns="http://www.w3.org/2000/svg">
<path d="M14.454 0H51.546C59.5287 0 66 6.47126 66 14.454V51.546C66 59.5287 59.5287 66 51.546 66H14.454C6.47126 66 0 59.5287 0 51.546V14.454C0 6.47126 6.47126 0 14.454 0Z" fill="url(#paint0_linear_92_99)"/>
<path d="M21.1513 47.9041L21.1575 47.9061L18.901 51.8145C18.0773 53.2412 16.2529 53.73 14.8263 52.9063C13.3997 52.0827 12.9108 50.2583 13.7345 48.8316L15.3968 45.9524L15.5563 45.6761C15.8412 45.2665 16.5443 44.5599 17.9507 44.6927C17.9507 44.6927 21.2602 45.0519 21.4996 46.772C21.4997 46.772 21.5323 47.338 21.1513 47.9041ZM53.1571 37.9214H46.1203C45.6411 37.8893 45.4318 37.7182 45.3497 37.6187L45.3444 37.6096L37.8118 24.5627L37.802 24.5692L37.3502 23.9215C36.6099 22.7893 35.4342 25.6851 35.4342 25.6851C34.0306 28.9117 35.6334 32.5803 36.1923 33.6891L46.6547 51.8105C47.4783 53.2372 49.3027 53.726 50.7294 52.9023C52.156 52.0787 52.6448 50.2543 51.8212 48.8276L49.2049 44.2962C49.1543 44.1865 49.0661 43.8883 49.6026 43.8871H53.1571C54.8045 43.8871 56.1399 42.5516 56.1399 40.9043C56.1399 39.2569 54.8045 37.9214 53.1571 37.9214ZM39.4894 41.9765C39.4894 41.9765 39.865 43.8871 38.4116 43.8871H36.9583L12.3987 43.8871C10.7513 43.8871 9.41577 42.5516 9.41577 40.9043C9.41577 39.2569 10.7513 37.9214 12.3987 37.9214H19.0863C20.166 37.8588 20.422 37.2355 20.422 37.2355L20.4279 37.2385L29.1575 22.1183L29.1549 22.1178C29.3141 21.8257 29.1815 21.5497 29.1585 21.506L26.2755 16.5127C25.4518 15.086 25.9407 13.2616 27.3673 12.438C28.794 11.6143 30.6183 12.1031 31.442 13.5298L32.7791 15.8457L34.1138 13.5339C34.9374 12.1072 36.7618 11.6184 38.1884 12.4421C39.6151 13.2658 40.104 15.0902 39.2802 16.5168L27.1327 37.5568C27.0796 37.6849 27.0633 37.886 27.4585 37.9214H34.7196L34.7212 37.9921C34.7212 37.9921 38.9179 38.0574 39.4894 41.9765Z" fill="white"/>
<defs>
<linearGradient id="paint0_linear_92_99" x1="8448" y1="0" x2="8448" y2="16896" gradientUnits="userSpaceOnUse">
<stop stop-color="#874CF5"/>
<stop offset="1" stop-color="#1A74E8"/>
</linearGradient>
</defs>
</svg>
