<svg width="24" height="24" viewBox="0 0 24 24" fill="none" xmlns="http://www.w3.org/2000/svg">
<path fill-rule="evenodd" clip-rule="evenodd" d="M6.79303 6.79308C6.98056 6.60561 7.23487 6.50029 7.50003 6.50029C7.76519 6.50029 8.0195 6.60561 8.20703 6.79308L12 10.5861L15.793 6.79308C15.8853 6.69757 15.9956 6.62139 16.1176 6.56898C16.2396 6.51657 16.3709 6.48898 16.5036 6.48783C16.6364 6.48668 16.7681 6.51198 16.891 6.56226C17.0139 6.61254 17.1255 6.68679 17.2194 6.78069C17.3133 6.87458 17.3876 6.98623 17.4379 7.10913C17.4881 7.23202 17.5134 7.3637 17.5123 7.49648C17.5111 7.62926 17.4835 7.76048 17.4311 7.88249C17.3787 8.00449 17.3025 8.11483 17.207 8.20708L13.414 12.0001L17.207 15.7931C17.3892 15.9817 17.49 16.2343 17.4877 16.4965C17.4854 16.7587 17.3803 17.0095 17.1948 17.1949C17.0094 17.3803 16.7586 17.4855 16.4964 17.4878C16.2342 17.49 15.9816 17.3892 15.793 17.2071L12 13.4141L8.20703 17.2071C8.01843 17.3892 7.76583 17.49 7.50363 17.4878C7.24143 17.4855 6.99062 17.3803 6.80521 17.1949C6.6198 17.0095 6.51463 16.7587 6.51236 16.4965C6.51008 16.2343 6.61087 15.9817 6.79303 15.7931L10.586 12.0001L6.79303 8.20708C6.60556 8.01955 6.50024 7.76525 6.50024 7.50008C6.50024 7.23492 6.60556 6.98061 6.79303 6.79308Z" fill="#9747FF"/>
</svg>
