<svg width="86" height="75" viewBox="0 0 86 75" fill="none" xmlns="http://www.w3.org/2000/svg">
<path d="M84.9392 67.8593H0.164764C0.121066 67.8593 0.0791574 67.842 0.0482582 67.8111C0.0173589 67.7802 0 67.7382 0 67.6945C0 67.6509 0.0173589 67.6089 0.0482582 67.578C0.0791574 67.5471 0.121066 67.5298 0.164764 67.5298H84.9392C84.9829 67.5298 85.0248 67.5471 85.0557 67.578C85.0866 67.6089 85.104 67.6509 85.104 67.6945C85.104 67.7382 85.0866 67.7802 85.0557 67.8111C85.0248 67.842 84.9829 67.8593 84.9392 67.8593Z" fill="#D1D3D4"/>
<path d="M58.9164 38.9595H77.8412V71.451H58.9164V38.9595Z" fill="white"/>
<path d="M77.8412 71.6157H58.9164C58.8727 71.6157 58.8307 71.5983 58.7998 71.5674C58.7689 71.5365 58.7516 71.4946 58.7516 71.4509V38.9594C58.7516 38.9157 58.7689 38.8738 58.7998 38.8429C58.8307 38.812 58.8727 38.7947 58.9164 38.7947H77.8412C77.8849 38.7947 77.9268 38.812 77.9577 38.8429C77.9886 38.8738 78.0059 38.9157 78.0059 38.9594V71.4443C78.0068 71.4665 78.0032 71.4887 77.9953 71.5094C77.9874 71.5302 77.9754 71.5491 77.9601 71.5651C77.9447 71.5811 77.9262 71.5939 77.9058 71.6026C77.8853 71.6112 77.8634 71.6157 77.8412 71.6157ZM59.0811 71.2862H77.6764V39.1242H59.0811V71.2862Z" fill="#231F20"/>
<path d="M6.77844 38.9595H25.7032V71.451H6.77844V38.9595Z" fill="white"/>
<path d="M25.7032 71.6157H6.77841C6.73471 71.6157 6.6928 71.5983 6.66191 71.5674C6.63101 71.5365 6.61365 71.4946 6.61365 71.4509V38.9594C6.61365 38.9157 6.63101 38.8738 6.66191 38.8429C6.6928 38.812 6.73471 38.7947 6.77841 38.7947H25.7032C25.7469 38.7947 25.7888 38.812 25.8197 38.8429C25.8506 38.8738 25.868 38.9157 25.868 38.9594V71.4443C25.8689 71.4665 25.8653 71.4887 25.8574 71.5094C25.8495 71.5302 25.8375 71.5491 25.8221 71.5651C25.8067 71.5811 25.7883 71.5939 25.7678 71.6026C25.7474 71.6112 25.7254 71.6157 25.7032 71.6157ZM6.94318 71.2862H25.5385V39.1242H6.94318V71.2862Z" fill="#231F20"/>
<path d="M62.439 29.5383L66.1857 37.0615H56.0527L62.439 29.5383Z" fill="#231F20"/>
<path d="M66.1858 37.226H56.0627C56.031 37.226 55.9999 37.217 55.9731 37.2001C55.9463 37.1832 55.9248 37.1591 55.9111 37.1305C55.8981 37.1019 55.8936 37.0702 55.8983 37.0392C55.903 37.0082 55.9166 36.9792 55.9375 36.9558L62.3237 29.4327C62.3408 29.4114 62.3632 29.395 62.3887 29.3852C62.4142 29.3753 62.4418 29.3724 62.4687 29.3767C62.4958 29.3797 62.5218 29.3894 62.5442 29.4049C62.5666 29.4205 62.5849 29.4413 62.5972 29.4656L66.3407 36.9888C66.3546 37.0128 66.3619 37.0401 66.3619 37.0678C66.3619 37.0956 66.3546 37.1229 66.3407 37.1469C66.3251 37.1735 66.3022 37.1951 66.2748 37.2091C66.2474 37.2231 66.2165 37.229 66.1858 37.226ZM56.4087 36.8965H65.9189L62.4028 29.838L56.4087 36.8965Z" fill="#231F20"/>
<path d="M33.6613 37.0616H57.786L66.5383 24.2363H43.7646L33.6613 37.0616Z" fill="#231F20"/>
<path d="M57.7861 37.2263H33.6547C33.6238 37.2262 33.5936 37.2173 33.5675 37.2008C33.5414 37.1844 33.5204 37.1608 33.507 37.133C33.4936 37.1052 33.4883 37.0742 33.4917 37.0434C33.4951 37.0127 33.5071 36.9836 33.5262 36.9594L43.6295 24.1341C43.6447 24.1145 43.6642 24.0987 43.6865 24.0878C43.7088 24.077 43.7333 24.0714 43.7581 24.0715H66.5318C66.5616 24.0725 66.5906 24.0812 66.6161 24.0968C66.6415 24.1124 66.6624 24.1343 66.6768 24.1605C66.6928 24.1862 66.7014 24.2159 66.7014 24.2462C66.7014 24.2765 66.6928 24.3062 66.6768 24.3319L57.9245 37.1538C57.9094 37.1766 57.8888 37.1952 57.8646 37.2079C57.8404 37.2206 57.8134 37.2269 57.7861 37.2263ZM34.0007 36.8968H57.7103L66.2385 24.4011H43.8437L34.0007 36.8968Z" fill="#231F20"/>
<path d="M44.4896 25.4817L37.2795 34.8238H55.1828L61.9579 25.4817H44.4896Z" fill="white"/>
<path d="M55.1827 34.9886H37.2795C37.2486 34.9886 37.2183 34.98 37.1921 34.9637C37.1659 34.9474 37.1448 34.924 37.1312 34.8963C37.1159 34.8698 37.1078 34.8396 37.1078 34.809C37.1078 34.7783 37.1159 34.7482 37.1312 34.7217L44.3446 25.3795C44.3597 25.3599 44.3792 25.3441 44.4015 25.3332C44.4238 25.3224 44.4483 25.3168 44.4731 25.3169H61.9381C61.9682 25.3164 61.9979 25.3245 62.0235 25.3403C62.0492 25.356 62.0699 25.3788 62.0831 25.4059C62.0991 25.4316 62.1077 25.4613 62.1077 25.4916C62.1077 25.5219 62.0991 25.5516 62.0831 25.5772L55.308 34.9194C55.2938 34.9398 55.2752 34.9566 55.2534 34.9686C55.2317 34.9806 55.2075 34.9874 55.1827 34.9886ZM37.6156 34.659H55.0806L61.6349 25.6399H44.5719L37.6156 34.659Z" fill="#231F20"/>
<path d="M49.617 33.1234C49.5828 33.1232 49.5494 33.1122 49.5217 33.0922C49.4939 33.0721 49.4731 33.0438 49.4621 33.0114C48.5955 30.4575 47.3894 27.6565 46.9511 27.5906C46.4272 27.5906 43.066 30.3686 40.0805 33.0839C40.0481 33.1136 40.0053 33.1292 39.9615 33.1274C39.9176 33.1255 39.8762 33.1063 39.8465 33.074C39.8168 33.0416 39.8012 32.9988 39.803 32.955C39.8049 32.9111 39.8241 32.8697 39.8564 32.84C40.8911 31.9009 46.0351 27.2644 46.9808 27.2644H47.0171C47.8606 27.3929 49.3534 31.6142 49.7917 32.9059C49.7988 32.9265 49.8018 32.9482 49.8003 32.9699C49.7988 32.9916 49.793 33.0128 49.7832 33.0322C49.7733 33.0516 49.7597 33.0688 49.743 33.0828C49.7263 33.0967 49.707 33.1072 49.6862 33.1135C49.6644 33.1228 49.6406 33.1263 49.617 33.1234Z" fill="#D1D3D4"/>
<path d="M54.9949 33.4663C54.9589 33.4661 54.9238 33.454 54.8953 33.432C54.8667 33.41 54.8461 33.3792 54.8368 33.3443C54.2568 31.2848 53.4297 29.0868 53.0408 28.9715C52.652 28.8562 50.8462 30.4873 49.3765 32.0559C49.3463 32.0878 49.3047 32.1064 49.2609 32.1076C49.217 32.1089 49.1744 32.0926 49.1425 32.0625C49.1106 32.0323 49.092 31.9907 49.0908 31.9469C49.0895 31.903 49.1058 31.8604 49.1359 31.8285C49.8872 31.0278 52.3917 28.4344 53.1364 28.6584C53.8811 28.8825 54.9488 32.5271 55.1531 33.2718C55.1653 33.3138 55.1604 33.3589 55.1394 33.3972C55.1184 33.4355 55.083 33.4639 55.0411 33.4761L54.9949 33.4663Z" fill="#D1D3D4"/>
<path d="M60.2905 30.5827C59.8852 30.5827 59.5656 30.3883 59.5656 30.1412C59.5656 29.894 59.8951 29.7029 60.2905 29.7029C60.6859 29.7029 61.0155 29.894 61.0155 30.1412C61.0155 30.3883 60.6958 30.5827 60.2905 30.5827ZM60.2905 29.7853C59.9412 29.7853 59.6315 29.9467 59.6315 30.1412C59.6315 30.3356 59.9247 30.5003 60.2905 30.5003C60.6563 30.5003 60.9331 30.3356 60.9331 30.1412C60.9331 29.9467 60.6398 29.7951 60.2905 29.7951V29.7853Z" fill="#A7A9AC"/>
<path d="M63.1706 26.8461H61.7075C61.6973 26.8453 61.6877 26.8409 61.6804 26.8336C61.6731 26.8264 61.6687 26.8167 61.668 26.8065C61.6679 26.7957 61.672 26.7853 61.6793 26.7773C61.6867 26.7694 61.6967 26.7645 61.7075 26.7637H63.1706C63.1761 26.7637 63.1815 26.7648 63.1865 26.767C63.1916 26.7692 63.1961 26.7724 63.1998 26.7764C63.2035 26.7804 63.2064 26.7852 63.2081 26.7904C63.2099 26.7955 63.2106 26.801 63.2102 26.8065C63.2102 26.817 63.206 26.8271 63.1986 26.8345C63.1912 26.8419 63.1811 26.8461 63.1706 26.8461Z" fill="#A7A9AC"/>
<path d="M57.7861 37.2261C57.7509 37.2264 57.7165 37.2161 57.6872 37.1964C57.6525 37.1702 57.6293 37.1315 57.6225 37.0884C57.6158 37.0454 57.626 37.0014 57.651 36.9658L62.3237 30.5531C62.3364 30.5356 62.3525 30.5207 62.371 30.5094C62.3895 30.498 62.4101 30.4905 62.4315 30.4871C62.4529 30.4837 62.4748 30.4846 62.4959 30.4897C62.517 30.4949 62.5369 30.5041 62.5544 30.5169C62.5891 30.5432 62.6123 30.5819 62.6191 30.6249C62.6259 30.6679 62.6157 30.7119 62.5906 30.7476L57.9179 37.1734C57.9011 37.1912 57.8806 37.2052 57.8579 37.2143C57.8351 37.2234 57.8106 37.2275 57.7861 37.2261Z" fill="white"/>
<path d="M49.6171 27.8611C49.4737 27.8611 49.3335 27.8185 49.2143 27.7389C49.0951 27.6592 49.0021 27.546 48.9473 27.4135C48.8924 27.2811 48.878 27.1353 48.906 26.9947C48.934 26.854 49.003 26.7249 49.1044 26.6235C49.2058 26.5221 49.335 26.453 49.4756 26.4251C49.6162 26.3971 49.762 26.4114 49.8945 26.4663C50.027 26.5212 50.1402 26.6141 50.2198 26.7333C50.2995 26.8525 50.342 26.9927 50.342 27.1361C50.342 27.3284 50.2656 27.5128 50.1297 27.6487C49.9937 27.7847 49.8093 27.8611 49.6171 27.8611ZM49.6171 26.7407C49.5388 26.7407 49.4624 26.7639 49.3974 26.8073C49.3323 26.8508 49.2816 26.9125 49.2517 26.9848C49.2218 27.057 49.214 27.1365 49.2292 27.2132C49.2445 27.2899 49.2821 27.3604 49.3374 27.4157C49.3927 27.471 49.4632 27.5087 49.5399 27.5239C49.6166 27.5392 49.6961 27.5314 49.7684 27.5014C49.8406 27.4715 49.9024 27.4208 49.9458 27.3558C49.9893 27.2908 50.0125 27.2143 50.0125 27.1361C50.0129 27.084 50.003 27.0324 49.9833 26.9843C49.9636 26.9361 49.9345 26.8923 49.8976 26.8555C49.8608 26.8187 49.8171 26.7896 49.7689 26.7699C49.7207 26.7502 49.6691 26.7402 49.6171 26.7407Z" fill="#D1D3D4"/>
<path d="M4.26416 37.3416H78.6453V40.4951H4.26416V37.3416Z" fill="white"/>
<path d="M78.6485 40.6599H4.26413C4.22043 40.6599 4.17852 40.6425 4.14762 40.6116C4.11672 40.5807 4.09937 40.5388 4.09937 40.4951V37.3415C4.10021 37.2981 4.11784 37.2567 4.14856 37.226C4.17928 37.1952 4.2207 37.1776 4.26413 37.1768H78.6485C78.692 37.1776 78.7334 37.1952 78.7641 37.226C78.7948 37.2567 78.8125 37.2981 78.8133 37.3415V40.4951C78.8133 40.5388 78.7959 40.5807 78.765 40.6116C78.7341 40.6425 78.6922 40.6599 78.6485 40.6599ZM4.42889 40.3303H78.4706V37.503H4.42889V40.3303Z" fill="#231F20"/>
<path d="M32.2411 54.4014C32.3103 54.6353 28.1483 69.5762 28.1483 69.5762L33.9645 70.512L40.8385 49.8704L32.2411 54.4014Z" fill="white"/>
<path d="M33.9644 70.6765H33.9381L28.1219 69.7407C28.0987 69.7373 28.0764 69.7291 28.0565 69.7167C28.0367 69.7042 28.0197 69.6877 28.0066 69.6682C27.9836 69.6271 27.9765 69.579 27.9868 69.5331C29.6114 63.7136 32.0301 54.9119 32.0762 54.4176C32.0739 54.3854 32.0812 54.3533 32.097 54.3252C32.1128 54.2971 32.1365 54.2742 32.1652 54.2595L40.7626 49.7284C40.792 49.7137 40.825 49.7077 40.8578 49.7112C40.8905 49.7147 40.9215 49.7275 40.9471 49.7482C40.9712 49.7703 40.9885 49.7987 40.9973 49.8301C41.006 49.8616 41.0058 49.8948 40.9966 49.9262L34.1193 70.5678C34.1082 70.5999 34.0873 70.6277 34.0595 70.6472C34.0317 70.6668 33.9984 70.677 33.9644 70.6765ZM28.3624 69.4408L33.859 70.3272L40.5616 50.2096L32.3893 54.5132C32.208 55.4589 30.8537 60.4711 28.3559 69.4408H28.3624Z" fill="#231F20"/>
<path d="M27.7957 68.9302L26.9093 71.718L40.8385 72.7955C40.1843 71.478 39.0533 70.4589 37.675 69.9451C36.2284 69.4376 34.6697 68.8313 34.6697 68.8313L33.9645 70.5119L27.7957 68.9302Z" fill="#231F20"/>
<path d="M40.8385 72.9603L26.9093 71.8828C26.8845 71.881 26.8604 71.8735 26.8389 71.8611C26.8173 71.8486 26.7989 71.8314 26.7849 71.8108C26.771 71.7902 26.7619 71.7667 26.7583 71.7421C26.7547 71.7174 26.7568 71.6923 26.7643 71.6686L27.6508 68.8808C27.6637 68.8409 27.6913 68.8075 27.7281 68.7872C27.7648 68.767 27.8079 68.7616 27.8485 68.772L33.8788 70.3175L34.5379 68.7687C34.5459 68.749 34.5576 68.7311 34.5726 68.7159C34.5875 68.7008 34.6053 68.6887 34.6249 68.6804C34.6445 68.6722 34.6655 68.6678 34.6868 68.6677C34.708 68.6676 34.7291 68.6717 34.7488 68.6798C34.7653 68.6798 36.3206 69.2894 37.7508 69.7903C39.173 70.3174 40.3393 71.3692 41.0098 72.7297C41.0237 72.7543 41.031 72.7821 41.031 72.8104C41.031 72.8387 41.0237 72.8665 41.0098 72.8911C40.9921 72.9192 40.9661 72.9409 40.9353 72.9534C40.9046 72.9658 40.8707 72.9682 40.8385 72.9603ZM27.1268 71.5697L40.5551 72.611C39.9026 71.4557 38.8643 70.5668 37.6223 70.1C36.4459 69.6881 35.1838 69.207 34.7587 69.0455L34.1161 70.5746C34.1007 70.6115 34.0727 70.6417 34.0371 70.6598C34.0015 70.6779 33.9605 70.6827 33.9217 70.6734L27.9045 69.1378L27.1268 71.5697Z" fill="#231F20"/>
<path d="M18.0186 54.5989L17.0301 70.3371C17.0301 70.3371 13.6886 70.4525 12.8516 71.039C12.0146 71.6256 11.3325 74.2816 11.3325 74.2816H12.3738C12.3738 74.2816 12.9802 72.3044 13.6458 72.0672C14.3115 71.8299 18.0944 71.7376 18.0944 71.7376C18.0944 71.7376 19.92 72.4428 20.2133 73.6522C20.444 74.6045 20.3781 74.8253 20.3781 74.8253H21.5314C21.5286 74.2834 21.451 73.7445 21.3007 73.2238C21.0701 72.5648 20.2034 71.7772 20.2034 71.7772C20.2034 71.7772 22.1114 71.8167 22.7474 71.8167C23.3834 71.8167 24.0457 73.0294 24.0457 73.0294H25.288C25.288 73.0294 23.9897 70.8413 23.1494 70.6864C22.3091 70.5316 20.154 70.1559 20.154 70.1559L19.5674 55.4919L18.0186 54.5989Z" fill="#231F20"/>
<path d="M21.5446 74.9933H20.3912C20.3652 74.9929 20.3397 74.9868 20.3163 74.9754C20.293 74.964 20.2724 74.9476 20.2561 74.9274C20.2413 74.9061 20.2315 74.8816 20.2275 74.856C20.2235 74.8303 20.2254 74.804 20.233 74.7792C20.2345 74.4112 20.1778 74.0453 20.065 73.695C19.8178 72.6636 18.3053 72.0012 18.0878 71.909C17.0168 71.932 14.2422 72.0309 13.7248 72.2385C13.2965 72.3967 12.7791 73.6159 12.555 74.3442C12.5446 74.3781 12.5236 74.4079 12.4952 74.4292C12.4668 74.4505 12.4324 74.4623 12.3968 74.4628H11.3457C11.3207 74.462 11.2961 74.4557 11.2739 74.4443C11.2517 74.4328 11.2323 74.4166 11.2171 74.3967C11.202 74.3768 11.1914 74.3538 11.1863 74.3293C11.1812 74.3048 11.1816 74.2795 11.1875 74.2552C11.2138 74.1465 11.8927 71.5333 12.7692 70.9204C13.5436 70.38 16.2161 70.2251 16.8883 70.1954L17.8571 54.6021C17.8593 54.5744 17.8683 54.5475 17.8832 54.524C17.8982 54.5004 17.9186 54.4809 17.9428 54.467C17.9671 54.4541 17.9943 54.4473 18.0219 54.4473C18.0495 54.4473 18.0766 54.4541 18.101 54.467L19.6629 55.3667C19.6871 55.3802 19.7074 55.3998 19.7218 55.4234C19.7363 55.4471 19.7443 55.4741 19.7453 55.5018L20.3286 70.034C20.8097 70.1163 22.4837 70.4063 23.1955 70.5414C24.0786 70.7062 25.3078 72.7295 25.4429 72.9602C25.4573 72.9852 25.4649 73.0136 25.4649 73.0425C25.4649 73.0715 25.4573 73.0999 25.4429 73.1249C25.4284 73.1507 25.4073 73.1722 25.3819 73.1872C25.3564 73.2023 25.3274 73.2103 25.2979 73.2106H24.0556C24.026 73.2103 23.997 73.2023 23.9716 73.1872C23.9461 73.1722 23.9251 73.1507 23.9106 73.1249C23.6733 72.69 23.1461 71.9979 22.7572 71.9979C22.3091 71.9979 21.2216 71.9782 20.6219 71.9683C20.9799 72.3145 21.2665 72.7276 21.4655 73.1842C21.6235 73.7192 21.7046 74.274 21.706 74.8319C21.7052 74.8744 21.6879 74.915 21.6578 74.9451C21.6277 74.9752 21.5871 74.9925 21.5446 74.9933ZM20.556 74.6638H21.3699C21.359 74.1949 21.2858 73.7295 21.1524 73.2798C20.9382 72.6636 20.1078 71.9123 20.0979 71.9024C20.0737 71.8798 20.0567 71.8505 20.0491 71.8182C20.0415 71.786 20.0436 71.7522 20.0551 71.7211C20.0688 71.6904 20.0909 71.6642 20.1189 71.6455C20.1469 71.6269 20.1796 71.6165 20.2133 71.6157C20.233 71.6157 22.1245 71.6552 22.7539 71.6552C23.3833 71.6552 23.9699 72.5614 24.1478 72.8679H24.998C24.5564 72.1726 23.6799 70.9533 23.1263 70.8512C22.2992 70.6963 20.1605 70.3272 20.1342 70.3239C20.0963 70.3178 20.0617 70.2987 20.0365 70.2698C20.0112 70.2409 19.9968 70.2041 19.9958 70.1658L19.4191 55.594L18.1669 54.8724L17.208 70.3602C17.2055 70.401 17.188 70.4395 17.1588 70.4681C17.1295 70.4968 17.0907 70.5135 17.0498 70.5151C16.1337 70.548 13.6128 70.7293 12.9603 71.1741C12.3672 71.5893 11.7938 73.2798 11.5598 74.1168H12.265C12.4166 73.6522 12.957 72.1396 13.5831 71.9123C14.2093 71.6849 17.9329 71.5827 18.0878 71.5827H18.1504C18.2295 71.6124 20.0617 72.3308 20.3714 73.6093C20.4694 73.9537 20.5335 74.3069 20.5626 74.6638H20.556Z" fill="#231F20"/>
<path d="M37.072 44.5615C37.072 44.5615 50.2333 45.2634 51.0637 47.1384C51.8941 49.0135 45.7913 69.632 45.7913 69.632C45.7913 69.632 52.2336 71.8596 51.1791 72.3276C50.1246 72.7955 39.5797 71.8596 39.5797 71.8596L44.5786 52.747L31.5557 51.8705L37.072 44.5615Z" fill="white"/>
<path d="M49.5215 72.624C46.4305 72.624 40.4232 72.1001 39.5763 72.0243C39.5522 72.0222 39.5289 72.015 39.5078 72.003C39.4868 71.9911 39.4686 71.9747 39.4544 71.9551C39.4408 71.9351 39.4317 71.9123 39.4277 71.8884C39.4238 71.8645 39.425 71.8401 39.4313 71.8167L44.3743 52.9117L31.549 52.0483C31.5199 52.045 31.492 52.0346 31.4678 52.0179C31.4437 52.0012 31.424 51.9788 31.4106 51.9527C31.3981 51.9256 31.3932 51.8956 31.3967 51.8659C31.4002 51.8362 31.4119 51.8081 31.4304 51.7847L36.95 44.4626C36.9643 44.4395 36.985 44.421 37.0095 44.4093C37.0341 44.3976 37.0614 44.3932 37.0884 44.3967C37.1214 44.3967 40.4232 44.5746 43.7844 44.9832C50.6683 45.8136 51.0868 46.7594 51.2252 47.0724C52.0391 48.9145 46.6118 67.5032 46.012 69.5298C47.7618 70.1394 51.4525 71.5069 51.4789 72.1825C51.4798 72.2484 51.4595 72.3128 51.4209 72.3662C51.3823 72.4197 51.3275 72.4592 51.2647 72.4791C50.6937 72.6113 50.1065 72.6601 49.5215 72.624ZM39.7971 71.7113C42.8551 71.9815 50.3091 72.5384 51.123 72.1759C50.9055 71.7772 48.1968 70.6403 45.7385 69.7934C45.6984 69.7791 45.6653 69.7499 45.6463 69.7118C45.6272 69.6737 45.6237 69.6297 45.6364 69.5891C47.3235 63.8718 51.5679 48.7003 50.9088 47.2075C50.2498 45.7148 40.845 44.9338 37.1477 44.7328L31.8753 51.7418L44.5951 52.6019C44.6195 52.6031 44.6433 52.6097 44.6649 52.621C44.6866 52.6324 44.7055 52.6484 44.7203 52.6678C44.7467 52.7088 44.7561 52.7584 44.7466 52.8062L39.7971 71.7113Z" fill="#231F20"/>
<path d="M32.6068 32.8436C32.6068 32.8436 39.3687 41.2795 42.2587 41.0455C45.1487 40.8116 53.4264 30.4116 53.4264 30.4116C54.9225 28.6256 56.5965 26.3584 55.5255 23.8969C55.42 23.6596 55.2355 23.4059 54.9785 23.4256C54.8704 23.4422 54.7676 23.484 54.6786 23.5476L53.7559 24.1144C53.7856 23.8606 53.4627 23.6794 53.2155 23.7486C52.975 23.8427 52.7746 24.0174 52.6487 24.2429C51.6898 25.6071 51.0703 26.9055 51.123 28.5861L41.4481 33.529L37.609 29.2814" fill="white"/>
<path d="M42.1434 41.2133C39.1414 41.2133 32.7519 33.3046 32.4784 32.9455C32.4555 32.9111 32.4464 32.8694 32.4528 32.8286C32.4592 32.7878 32.4807 32.751 32.513 32.7253C32.5454 32.6996 32.5861 32.687 32.6273 32.6899C32.6685 32.6928 32.7071 32.7111 32.7354 32.7412C32.8013 32.8235 39.2996 40.8871 42.1335 40.8871H42.2456C45.0334 40.663 53.209 30.418 53.2881 30.3125C54.8335 28.4738 56.3922 26.3186 55.3674 23.9691C55.3278 23.8768 55.1894 23.5836 54.9851 23.5967C54.9027 23.6117 54.8249 23.6456 54.7578 23.6956L53.8285 24.2591C53.8022 24.2753 53.7719 24.2839 53.741 24.2837C53.7102 24.2836 53.6799 24.2748 53.6538 24.2583C53.6277 24.2418 53.6068 24.2183 53.5934 24.1905C53.58 24.1626 53.5747 24.1316 53.578 24.1009C53.5801 24.0771 53.5757 24.0532 53.5653 24.0317C53.5548 24.0103 53.5387 23.992 53.5187 23.979C53.4812 23.949 53.4376 23.9275 53.3909 23.9161C53.3442 23.9048 53.2956 23.9037 53.2485 23.9131C53.0455 23.9996 52.8773 24.1516 52.7707 24.3448C51.9601 25.4981 51.2186 26.8096 51.2746 28.5891C51.2756 28.6202 51.2678 28.6509 51.2521 28.6777C51.2363 28.7046 51.2133 28.7264 51.1857 28.7407L41.5107 33.6836C41.4784 33.7002 41.4415 33.7057 41.4057 33.6991C41.3699 33.6926 41.3373 33.6744 41.313 33.6474L37.4773 29.3931C37.4619 29.3778 37.4496 29.3596 37.4412 29.3395C37.4329 29.3194 37.4286 29.2979 37.4286 29.2762C37.4286 29.2544 37.4329 29.2329 37.4412 29.2128C37.4496 29.1927 37.4619 29.1745 37.4773 29.1592C37.5087 29.1288 37.5506 29.1118 37.5943 29.1118C37.638 29.1118 37.6799 29.1288 37.7113 29.1592L41.4613 33.3046L50.9352 28.4771C50.9056 26.6548 51.6635 25.3136 52.4906 24.1372C52.639 23.8799 52.8718 23.6819 53.1497 23.577C53.2497 23.5529 53.3539 23.5526 53.454 23.5761C53.5542 23.5996 53.6474 23.6461 53.7263 23.7121C53.7708 23.7507 53.8086 23.7964 53.8384 23.8472L54.5765 23.3957C54.6881 23.3177 54.8171 23.2679 54.9522 23.2507C55.2389 23.2277 55.4926 23.4386 55.6574 23.8208C56.8503 26.5559 54.6951 29.1262 53.5352 30.5069C53.2057 30.9287 45.1916 40.9629 42.262 41.2001L42.1434 41.2133Z" fill="#231F20"/>
<path d="M10.4724 31.4034C10.4724 31.4034 6.98931 39.2956 8.28106 40.1392C9.57281 40.9828 17.4354 40.1392 17.4354 40.1392L16.7532 29.9238" fill="white"/>
<path d="M11.2698 40.6599C9.86272 40.6599 8.63358 40.5611 8.18542 40.2645C7.96134 40.1195 7.27593 39.6746 8.73574 35.4007C9.43763 33.3411 10.3109 31.3573 10.3208 31.3376C10.3277 31.3155 10.3392 31.2951 10.3546 31.2778C10.3699 31.2604 10.3888 31.2465 10.4099 31.237C10.4309 31.2274 10.4538 31.2224 10.477 31.2223C10.5001 31.2221 10.523 31.2269 10.5442 31.2362C10.5654 31.2455 10.5844 31.2592 10.6 31.2763C10.6155 31.2935 10.6273 31.3137 10.6345 31.3357C10.6417 31.3577 10.6442 31.381 10.6418 31.404C10.6394 31.4271 10.6322 31.4493 10.6206 31.4694C9.30252 34.4714 7.51648 39.4374 8.36667 39.9877C9.35525 40.6467 14.9572 40.2118 17.2639 39.9877L16.6049 29.9338C16.6034 29.9121 16.6061 29.8904 16.613 29.8698C16.6199 29.8493 16.6307 29.8303 16.645 29.8139C16.6737 29.7808 16.7144 29.7605 16.7581 29.7575C16.8018 29.7544 16.8449 29.7688 16.878 29.7976C16.911 29.8263 16.9313 29.867 16.9344 29.9107L17.6165 40.1261C17.6193 40.1688 17.6054 40.2108 17.5777 40.2434C17.55 40.276 17.5108 40.2966 17.4682 40.3007C17.2376 40.3139 13.9159 40.6599 11.2698 40.6599Z" fill="#231F20"/>
<path d="M13.3096 44.779C13.3096 44.779 11.606 48.562 13.4217 50.9478C15.2374 53.3336 40.443 53.6203 40.443 53.6203L42.2521 44.5615L31.7072 43.1248L31.0943 39.991L13.3096 44.779Z" fill="white"/>
<path d="M40.4496 53.785C40.387 53.785 34.0699 53.7092 27.598 53.3434C18.8819 52.8491 14.0642 52.0748 13.28 51.0367C11.428 48.6048 13.0757 44.8614 13.1482 44.7032C13.158 44.6805 13.1729 44.6604 13.1918 44.6444C13.2106 44.6284 13.2329 44.617 13.2569 44.6109L31.0514 39.8229C31.0735 39.8162 31.0968 39.8145 31.1196 39.8179C31.1424 39.8213 31.1641 39.8298 31.1832 39.8427C31.2019 39.8544 31.2179 39.8698 31.2304 39.8879C31.2428 39.906 31.2515 39.9265 31.2557 39.9481L31.8456 42.9699L42.262 44.3869C42.2845 44.3897 42.3062 44.3973 42.3255 44.4092C42.3449 44.4212 42.3614 44.4372 42.374 44.4561C42.3871 44.4739 42.3962 44.4942 42.4007 44.5158C42.4053 44.5374 42.4052 44.5597 42.4004 44.5813L40.611 53.6499C40.6041 53.6877 40.5842 53.7219 40.5547 53.7466C40.5252 53.7713 40.488 53.7849 40.4496 53.785ZM13.4283 44.9174C13.2141 45.4414 11.952 48.7465 13.5535 50.8489C14.9441 52.6745 31.5853 53.3533 40.3145 53.4588L42.0643 44.7032L31.7039 43.2928C31.67 43.288 31.6384 43.2727 31.6136 43.249C31.5888 43.2254 31.572 43.1946 31.5655 43.161L30.9888 40.1953L13.4283 44.9174Z" fill="#231F20"/>
<path d="M23.637 12.9104C23.3798 12.7561 23.1558 12.5522 22.978 12.3107C22.7312 11.9568 22.5524 11.5601 22.4507 11.1408C21.5577 7.91147 21.5511 3.77589 24.4279 1.56475C25.2764 0.916361 26.2679 0.480752 27.3195 0.294417C28.371 0.108081 29.4518 0.176447 30.4714 0.493786C31.8686 0.948535 33.055 2.86968 33.6778 4.1186C34.1885 5.13025 34.5345 6.23087 35.1409 7.1865C35.7472 8.14214 36.7127 8.97914 37.8463 9.03516C37.3973 9.28638 36.8974 9.43287 36.3838 9.46368C35.8702 9.49449 35.3563 9.40883 34.8805 9.2131C35.1024 9.51085 35.4052 9.73846 35.7529 9.86876C36.1005 9.99907 36.4784 10.0266 36.8412 9.94795C36.1822 10.4719 35.2397 10.4521 34.4093 10.2775C33.5789 10.1028 32.7617 9.83921 31.9082 9.94795C30.5901 10.0962 29.7333 11.0651 28.7019 11.7669C27.3937 12.6237 25.1331 13.7771 23.637 12.9104Z" fill="white"/>
<path d="M24.8794 13.3848C24.4185 13.3947 23.9634 13.2809 23.5613 13.0553C23.2798 12.8876 23.0363 12.6631 22.8462 12.3962C22.5863 12.0212 22.3986 11.601 22.2926 11.1572C21.8577 9.57549 20.7109 4.19099 24.3192 1.40978C25.1887 0.743226 26.2057 0.295577 27.2845 0.104595C28.3633 -0.0863868 29.4722 -0.0150983 30.5177 0.312446C32.0137 0.796852 33.2297 2.83334 33.8129 4.00316C34.0107 4.3986 34.1886 4.81051 34.3567 5.20924C34.6104 5.84962 34.9145 6.46888 35.2662 7.06118C35.5957 7.57195 36.492 8.76484 37.8398 8.83075C37.8753 8.83202 37.9094 8.84499 37.9368 8.86763C37.9642 8.89027 37.9834 8.92132 37.9914 8.95597C38.0007 8.99067 37.998 9.02753 37.9836 9.06047C37.9693 9.09342 37.9441 9.12048 37.9123 9.13721C37.1808 9.54483 36.3298 9.68357 35.5067 9.52935C35.8928 9.76669 36.356 9.84468 36.7985 9.74684C36.8352 9.7374 36.8741 9.74093 36.9085 9.75683C36.9429 9.77272 36.9708 9.80001 36.9875 9.83409C37.0041 9.86817 37.0085 9.90694 36.9999 9.94388C36.9913 9.98081 36.9702 10.0136 36.9402 10.0368C36.3503 10.5015 35.4869 10.6267 34.3731 10.4125C34.1754 10.3762 33.9777 10.3301 33.78 10.284C33.1778 10.1099 32.5506 10.0386 31.9247 10.0731C30.9922 10.1785 30.3002 10.7321 29.5653 11.289C29.3149 11.4835 29.0579 11.6812 28.7909 11.8657C28.0231 12.3995 26.3755 13.3848 24.8794 13.3848ZM28.4878 0.338809C27.0513 0.337976 25.6546 0.810498 24.5137 1.68328C21.0701 4.34258 22.1806 9.54912 22.6057 11.0847C22.7021 11.4885 22.8731 11.8707 23.1099 12.2117C23.2752 12.4374 23.4849 12.6269 23.7261 12.7686C25.3144 13.6913 27.8683 12.1096 28.613 11.6054C28.87 11.4307 29.1238 11.233 29.3676 11.0419C30.1058 10.4685 30.8703 9.87535 31.8951 9.76002C32.5618 9.71831 33.2306 9.79189 33.8723 9.97751C34.0667 10.0203 34.2611 10.0665 34.4555 10.1027C35.004 10.2305 35.5745 10.2305 36.1229 10.1027C35.5794 10.0156 35.0912 9.72012 34.762 9.27891C34.7406 9.25039 34.729 9.2157 34.729 9.18005C34.729 9.1444 34.7406 9.10971 34.762 9.08119C34.7835 9.0525 34.8142 9.03198 34.8489 9.023C34.8836 9.01402 34.9204 9.01711 34.9531 9.03176C35.6964 9.33274 36.5242 9.35033 37.2796 9.08119C36.3172 8.77666 35.5044 8.12151 35.0025 7.24572C34.6395 6.63951 34.3265 6.00471 34.0667 5.34764C33.8986 4.9555 33.7372 4.54688 33.5295 4.16133C33.0748 3.25513 31.8588 1.10002 30.4221 0.635383C29.7969 0.435748 29.1441 0.335668 28.4878 0.338809Z" fill="#231F20"/>
<path d="M32.5673 10.564C32.5673 10.564 33.4669 13.3781 32.9957 13.7769C32.5245 14.1756 31.5458 13.5495 31.5458 13.5495" fill="white"/>
<path d="M32.597 14.0769C32.1939 14.0424 31.8056 13.9088 31.4667 13.688C31.4472 13.6769 31.4303 13.662 31.4168 13.6442C31.4033 13.6263 31.3936 13.6059 31.3883 13.5842C31.383 13.5624 31.3821 13.5398 31.3858 13.5178C31.3895 13.4957 31.3976 13.4746 31.4097 13.4558C31.4218 13.437 31.4376 13.4208 31.4562 13.4083C31.4747 13.3958 31.4956 13.3872 31.5176 13.383C31.5396 13.3789 31.5622 13.3792 31.584 13.3841C31.6058 13.3889 31.6265 13.3981 31.6446 13.4112C31.8753 13.5562 32.597 13.9154 32.8968 13.6518C33.1242 13.4574 32.8309 11.925 32.4091 10.6168C32.3966 10.5749 32.401 10.5297 32.4213 10.4909C32.4416 10.4522 32.4763 10.4228 32.5179 10.4092C32.5594 10.3957 32.6046 10.3992 32.6435 10.419C32.6824 10.4388 32.7119 10.4732 32.7255 10.5147C32.943 11.2001 33.6185 13.4804 33.111 13.9022C32.9674 14.0225 32.7841 14.0848 32.597 14.0769Z" fill="#231F20"/>
<path d="M33.1144 7.33792C33.8822 8.43195 33.1144 10.073 32.7848 11.1901C32.3301 12.7631 31.8391 14.3239 31.3118 15.8727C30.9823 16.8613 28.3856 16.1462 28.0166 15.7211L27.3114 19.7776L21.8511 17.8894L23.6075 12.9696C23.6075 12.9696 25.3638 13.477 26.9456 11.7272C28.5273 9.97744 29.6279 5.51562 29.6279 5.51562C29.6279 5.51562 32.3663 6.26695 33.1144 7.33792Z" fill="white"/>
<path d="M27.308 19.9424H27.2553L21.7917 18.0608C21.771 18.0543 21.7518 18.0437 21.7354 18.0295C21.719 18.0153 21.7056 17.9979 21.6962 17.9784C21.6813 17.9368 21.6813 17.8914 21.6962 17.8499L23.4394 12.9135C23.453 12.8744 23.481 12.842 23.5178 12.823C23.5546 12.8039 23.5973 12.7998 23.6371 12.8114C23.7063 12.8279 25.321 13.2628 26.8105 11.6152C28.2999 9.96756 29.4467 5.52222 29.4467 5.47609C29.4516 5.45474 29.4608 5.43464 29.4739 5.41705C29.4869 5.39947 29.5035 5.38479 29.5225 5.37393C29.5626 5.35745 29.6076 5.35745 29.6477 5.37393C29.763 5.40688 32.4553 6.15491 33.2297 7.25883C33.9151 8.24742 33.4735 9.56553 33.1143 10.653C33.0451 10.8639 32.9792 11.0649 32.9232 11.2527C32.4685 12.818 31.9742 14.3964 31.4469 15.9419C31.3824 16.0938 31.2778 16.2252 31.1443 16.3221C31.0107 16.4191 30.8534 16.4779 30.689 16.4922C29.8024 16.5906 28.9066 16.4231 28.1154 16.0111L27.4563 19.8073C27.4526 19.8308 27.4436 19.8531 27.4299 19.8725C27.4162 19.8919 27.3981 19.908 27.3772 19.9193C27.3565 19.9326 27.3327 19.9406 27.308 19.9424ZM22.0587 17.7873L27.1795 19.5601L27.8386 15.6915C27.844 15.6608 27.8581 15.6324 27.879 15.6094C27.9 15.5864 27.927 15.5698 27.957 15.5615C27.987 15.5532 28.0187 15.5536 28.0485 15.5626C28.0783 15.5716 28.1049 15.5889 28.1253 15.6124C28.3625 15.8859 29.7894 16.334 30.6264 16.1693C30.9098 16.1133 31.0811 15.9946 31.1405 15.8167C31.6644 14.2778 32.162 12.7059 32.6135 11.144C32.6695 10.9528 32.7387 10.7485 32.8079 10.531C33.1374 9.52599 33.5592 8.27378 32.966 7.43019C32.3729 6.5866 30.3298 5.90118 29.7301 5.72323C29.5093 6.56353 28.4878 10.2477 27.051 11.836C25.6703 13.3617 24.1742 13.2464 23.6964 13.1541L22.0587 17.7873Z" fill="#231F20"/>
<path d="M31.605 14.6867C31.605 14.6867 30.1716 15.0953 29.8783 13.6487L31.605 14.6867Z" fill="white"/>
<path d="M31.1668 14.904C30.884 14.9112 30.6047 14.8405 30.3595 14.6997C30.1838 14.5863 30.0341 14.4369 29.9205 14.2614C29.8069 14.0858 29.7319 13.8881 29.7004 13.6814C29.6926 13.6381 29.7021 13.5935 29.7269 13.5571C29.7517 13.5207 29.7897 13.4955 29.8329 13.4869C29.876 13.4783 29.9208 13.4869 29.9577 13.511C29.9945 13.535 30.0205 13.5725 30.0299 13.6155C30.0518 13.7761 30.1071 13.9303 30.1922 14.0683C30.2774 14.2062 30.3905 14.3247 30.5242 14.4163C30.8412 14.5758 31.2051 14.6156 31.5491 14.5283C31.5707 14.5225 31.5933 14.5209 31.6155 14.5238C31.6377 14.5267 31.6592 14.5339 31.6786 14.5451C31.698 14.5563 31.7151 14.5712 31.7287 14.5889C31.7424 14.6067 31.7525 14.627 31.7583 14.6486C31.7641 14.6702 31.7657 14.6928 31.7628 14.715C31.7599 14.7373 31.7527 14.7587 31.7415 14.7781C31.7303 14.7976 31.7155 14.8146 31.6977 14.8283C31.6799 14.842 31.6597 14.852 31.638 14.8578C31.4834 14.8924 31.3252 14.9078 31.1668 14.904Z" fill="#231F20"/>
<path d="M29.2622 10.7256C29.3291 10.3188 29.2823 9.90145 29.1271 9.51955C29.0467 9.21118 28.9224 8.91597 28.758 8.64301C28.6725 8.5084 28.5585 8.39411 28.4242 8.30816C28.2899 8.22221 28.1384 8.16666 27.9803 8.14542C27.8382 8.14289 27.6973 8.17101 27.567 8.22788C27.4368 8.28474 27.3204 8.36901 27.2257 8.47495C27.0333 8.6814 26.8912 8.92951 26.8105 9.19991C26.6199 9.7833 26.5856 10.4065 26.7111 11.0072C26.8366 11.608 27.1174 12.1654 27.5255 12.6237L27.4629 12.5051" fill="white"/>
<path d="M27.5255 12.7884C27.5027 12.7881 27.4801 12.7833 27.4592 12.7743C27.4383 12.7652 27.4193 12.7521 27.4036 12.7356C26.9751 12.2529 26.6804 11.6666 26.5486 11.0348C26.4168 10.4029 26.4525 9.74763 26.6522 9.13389C26.7406 8.8396 26.8963 8.56994 27.107 8.34632C27.2205 8.22619 27.3582 8.13147 27.511 8.06843C27.6638 8.00538 27.8282 7.97543 27.9934 7.98054C28.1767 8.00131 28.3529 8.06341 28.5088 8.16216C28.6646 8.26091 28.796 8.39373 28.893 8.55062C29.0681 8.83623 29.2002 9.146 29.2852 9.47001C29.4503 9.88054 29.4983 10.3289 29.4236 10.7651C29.412 10.8077 29.384 10.8441 29.3458 10.8663C29.3075 10.8885 29.2621 10.8948 29.2193 10.8837C29.1774 10.8721 29.1419 10.8445 29.1203 10.8069C29.0987 10.7692 29.0928 10.7246 29.1039 10.6827C29.1591 10.306 29.1125 9.92142 28.9688 9.56887C28.8949 9.27604 28.7771 8.99607 28.6195 8.73846C28.5489 8.62215 28.4529 8.52324 28.3389 8.44908C28.2248 8.37492 28.0954 8.32741 27.9605 8.31007C27.8432 8.30781 27.7267 8.33043 27.6188 8.37643C27.5109 8.42244 27.4139 8.49079 27.3344 8.57699C27.1591 8.76463 27.0294 8.99016 26.9554 9.23604C26.7848 9.758 26.7446 10.3138 26.8382 10.8549C26.9318 11.396 27.1565 11.9059 27.4925 12.3402C27.5155 12.3465 27.5369 12.3573 27.5556 12.372C27.5743 12.3867 27.5898 12.4051 27.6013 12.4259L27.6606 12.5445C27.6796 12.5799 27.6848 12.6212 27.675 12.6602C27.6653 12.6992 27.6413 12.7331 27.6079 12.7554C27.5842 12.7742 27.5556 12.7856 27.5255 12.7884Z" fill="#231F20"/>
<path d="M32.6712 9.25589C32.7415 8.94153 32.6977 8.66415 32.5734 8.63633C32.4491 8.60852 32.2913 8.84081 32.221 9.15517C32.1506 9.46953 32.1944 9.74691 32.3187 9.77472C32.4431 9.80254 32.6008 9.57025 32.6712 9.25589Z" fill="#231F20"/>
<path d="M28.0133 15.721C27.2973 15.2565 26.6116 14.7469 25.9603 14.1953C25.9603 14.1953 25.6308 17.049 27.5849 17.7048L28.0133 15.721Z" fill="#231F20"/>
<path d="M27.5848 17.8698C27.5673 17.8729 27.5495 17.8729 27.532 17.8698C25.4824 17.181 25.7822 14.3076 25.7954 14.1856C25.799 14.1561 25.8103 14.128 25.8282 14.1043C25.8462 14.0805 25.8701 14.062 25.8976 14.0505C25.9255 14.0399 25.9556 14.0368 25.9851 14.0414C26.0146 14.046 26.0423 14.0582 26.0656 14.0769C26.7124 14.6239 27.3925 15.1301 28.1021 15.5927C28.1297 15.611 28.1513 15.637 28.1642 15.6674C28.1771 15.6979 28.1807 15.7315 28.1746 15.7641L27.7462 17.7412C27.7412 17.7638 27.7316 17.7852 27.718 17.8039C27.7044 17.8226 27.6871 17.8383 27.6671 17.85C27.6416 17.863 27.6134 17.8698 27.5848 17.8698ZM26.1085 14.5316C26.1085 15.2368 26.2007 16.9207 27.4661 17.4809L27.8286 15.797C27.2336 15.4055 26.6594 14.9831 26.1085 14.5316Z" fill="#231F20"/>
<path d="M12.2881 46.028C12.2881 46.028 12.5847 25.8609 15.6097 21.2179C18.6348 16.5748 26.4842 15.5269 30.2276 18.295C33.971 21.063 32.1685 42.2187 32.1685 42.2187C32.1685 42.2187 20.233 46.028 12.2881 46.028Z" fill="#874CF5"/>
<path d="M27.6145 17.1086C29.6057 17.9175 31.4667 19.0157 33.1374 20.3677C35.7275 22.5195 41.1943 31.7726 41.1943 31.7726L33.9843 36.1389L27.5123 28.1577L27.6145 17.1086Z" fill="#874CF5"/>
<path d="M18.7271 18.364C18.7271 18.364 14.954 18.7891 12.957 22.9313C11.8762 25.1787 9.10815 32.4349 9.10815 32.4349L17.432 33.3938L18.7271 18.364Z" fill="#874CF5"/>
<path d="M33.4438 35.6345C33.4179 35.6344 33.3924 35.6281 33.3695 35.616C33.3465 35.604 33.3268 35.5866 33.312 35.5653L26.8829 26.8098C26.8699 26.7925 26.8605 26.7728 26.8551 26.7518C26.8498 26.7308 26.8486 26.709 26.8516 26.6876C26.8547 26.6662 26.8619 26.6456 26.873 26.627C26.884 26.6083 26.8986 26.5921 26.9159 26.5791C26.9515 26.5541 26.9955 26.5439 27.0385 26.5506C27.0816 26.5574 27.1203 26.5806 27.1466 26.6153L33.5756 35.3709C33.594 35.3954 33.6052 35.4245 33.6079 35.455C33.6107 35.4854 33.6049 35.5161 33.5912 35.5435C33.5775 35.5708 33.5565 35.5938 33.5305 35.6099C33.5044 35.626 33.4744 35.6345 33.4438 35.6345Z" fill="#231F20"/>
<path d="M52.6355 25.7389L54.2436 20.7466L54.7445 20.8916L53.7328 25.8147C53.7328 25.8147 53.021 26.5001 52.6355 25.7389Z" fill="#231F20"/>
<path d="M53.1298 26.2627H53.0178C52.9 26.2379 52.7902 26.1847 52.6977 26.1077C52.6052 26.0308 52.533 25.9324 52.4872 25.8211C52.4707 25.781 52.4707 25.736 52.4872 25.6959L54.0854 20.6969C54.0997 20.6565 54.1286 20.623 54.1664 20.6029C54.2043 20.5827 54.2482 20.5775 54.2897 20.5882L54.7906 20.7332C54.8303 20.7448 54.8642 20.7708 54.8856 20.8062C54.907 20.8416 54.9142 20.8838 54.906 20.9243L53.8943 25.8672C53.8877 25.8988 53.8716 25.9275 53.8482 25.9496C53.6521 26.1339 53.3983 26.2445 53.1298 26.2627ZM52.8003 25.7189C52.8254 25.7711 52.8618 25.8171 52.9068 25.8536C52.9518 25.8901 53.0043 25.9161 53.0606 25.9298C53.2495 25.9315 53.4316 25.8594 53.5681 25.7288L54.5402 21.0067L54.3392 20.9507L52.8003 25.7189Z" fill="#231F20"/>
<path d="M22.2267 14.436C19.2609 13.7769 15.9656 14.2383 13.5699 16.0836C12.5547 16.8247 11.7919 17.8601 11.3852 19.0494C11.1924 19.6469 11.1475 20.2823 11.2543 20.901C11.361 21.5197 11.6163 22.1033 11.9981 22.6017C14.2718 25.3335 19.2642 25.3203 22.3519 24.4273C24.4576 23.821 30.6922 20.8618 28.9754 17.9554C27.7397 15.876 24.451 14.9138 22.2267 14.436Z" fill="#874CF5"/>
<path d="M18.4503 24.6745C16.4852 24.6175 14.5663 24.0655 12.8714 23.0697C12.8526 23.0586 12.8363 23.0438 12.8234 23.0262C12.8105 23.0085 12.8013 22.9885 12.7964 22.9673C12.7915 22.946 12.7909 22.924 12.7947 22.9025C12.7986 22.881 12.8067 22.8606 12.8186 22.8423C12.8423 22.8057 12.8795 22.7799 12.9221 22.7706C12.9647 22.7613 13.0093 22.7694 13.046 22.7929C13.0856 22.8192 17.1618 25.3533 21.0206 23.8902C22.8725 23.1883 23.9863 21.9427 25.0507 20.7399C26.2271 19.4218 27.3376 18.1762 29.2555 18.0015C29.2772 17.9997 29.299 18.0022 29.3196 18.0089C29.3403 18.0155 29.3595 18.0262 29.376 18.0403C29.3926 18.0544 29.4061 18.0716 29.416 18.091C29.4259 18.1103 29.4318 18.1315 29.4335 18.1531C29.4357 18.1746 29.4337 18.1963 29.4274 18.217C29.4211 18.2377 29.4107 18.2568 29.3969 18.2734C29.3831 18.29 29.3661 18.3037 29.3469 18.3136C29.3277 18.3235 29.3067 18.3294 29.2852 18.3311C27.4991 18.4925 26.4776 19.6492 25.2979 20.9673C24.25 22.1437 23.0637 23.475 21.1359 24.2066C20.2763 24.5236 19.3664 24.6821 18.4503 24.6745Z" fill="#231F20"/>
<path d="M12.5847 38.8213C12.5631 38.8204 12.5418 38.8153 12.5221 38.8063C12.5025 38.7972 12.4848 38.7843 12.4701 38.7684C12.4554 38.7525 12.444 38.7338 12.4365 38.7135C12.429 38.6932 12.4256 38.6716 12.4265 38.6499C12.6671 33.4335 13.7446 25.9268 13.7446 25.851C13.7519 25.8082 13.7756 25.7698 13.8106 25.7439C13.8457 25.7181 13.8893 25.7069 13.9325 25.7126C13.9751 25.7192 14.0135 25.7422 14.0394 25.7767C14.0652 25.8112 14.0765 25.8544 14.0709 25.8972C14.0709 25.973 12.9801 33.4763 12.7528 38.6631C12.751 38.7062 12.7325 38.747 12.7011 38.7765C12.6696 38.8061 12.6278 38.8222 12.5847 38.8213Z" fill="#231F20"/>
<path d="M37.8562 71.5072H44.8587C44.8587 71.5072 45.6199 69.8101 47.261 69.5762C47.261 69.5762 53.6472 72.275 52.7081 72.8286C51.7689 73.3822 37.3619 73.3229 37.3619 73.3229L37.8562 71.5072Z" fill="#231F20"/>
<path d="M38.8317 73.4909H37.3587C37.3339 73.491 37.3094 73.4854 37.2871 73.4746C37.2649 73.4637 37.2454 73.4479 37.2302 73.4283C37.2143 73.4081 37.2033 73.3845 37.1982 73.3593C37.193 73.3341 37.1938 73.3081 37.2005 73.2833L37.6948 71.4676C37.7043 71.4322 37.7254 71.401 37.7546 71.3789C37.7839 71.3568 37.8197 71.3451 37.8563 71.3457H44.7566C44.951 70.9667 45.7452 69.6288 47.238 69.4146C47.2659 69.4064 47.2957 69.4064 47.3236 69.4146C48.6418 69.9682 52.9256 71.84 52.9685 72.6572C52.9707 72.719 52.9556 72.7802 52.9247 72.8339C52.8938 72.8875 52.8484 72.9313 52.7938 72.9604C51.9931 73.4415 42.6509 73.4909 38.8317 73.4909ZM37.5762 73.1614C43.3528 73.1778 51.9733 73.0724 52.6258 72.6868C52.6258 72.2782 49.8346 70.8448 47.238 69.7442C45.7419 69.988 45.0169 71.5599 45.0104 71.5763C44.997 71.6052 44.9756 71.6296 44.9487 71.6465C44.9218 71.6635 44.8906 71.6723 44.8588 71.6719H37.9815L37.5762 73.1614Z" fill="#231F20"/>
<path d="M32.564 55.2975C37.0225 54.3584 40.0114 52.2725 38.2583 49.4583C36.5052 46.6441 23.9139 48.4697 21.4523 46.3838C18.9907 44.2979 19.8706 33.2356 17.1685 31.3408C14.4663 29.446 2.88341 27.5315 1.58836 29.9239C0.293313 32.3162 1.58836 49.7252 5.36146 53.5906C9.13456 57.456 28.2142 56.1939 32.564 55.2975Z" fill="#231F20"/>
<path d="M19.485 56.4017H18.7403C13.7315 56.3588 7.32215 55.8547 5.22965 53.7193C1.49939 49.8704 0.0428758 32.4549 1.44337 29.8549C1.68393 29.41 2.23424 29.0838 3.09101 28.8663C6.67298 28.0161 14.954 29.5649 17.2607 31.173C18.7139 32.1912 19.1654 35.6612 19.6037 39.0158C20.0024 42.0804 20.4143 45.2471 21.5644 46.2258C22.6584 47.1551 26.0196 47.2902 29.272 47.422C33.2758 47.5835 37.418 47.7516 38.4099 49.3399C38.9832 50.2626 39.0953 51.1523 38.7394 51.9761C38.0803 53.4985 35.912 54.7211 32.6069 55.4164C30.3364 55.9173 24.7872 56.4017 19.485 56.4017ZM5.59543 28.975C4.77668 28.9604 3.95885 29.0367 3.15692 29.2024C2.40559 29.3804 1.92448 29.6539 1.73335 30.013C0.454785 32.3758 1.84869 49.7551 5.48009 53.4853C9.1741 57.2782 28.1549 56.0392 32.5278 55.133C35.6814 54.4739 37.8299 53.2876 38.4263 51.8838C38.7361 51.1589 38.6339 50.3713 38.1199 49.5442C37.2203 48.1009 33.1769 47.9394 29.249 47.7812C25.7889 47.6428 22.52 47.511 21.3403 46.5059C20.0947 45.4449 19.6926 42.3572 19.2676 39.0883C18.8425 35.8193 18.3976 32.4054 17.0597 31.4729C15.2803 30.2174 9.54647 28.975 5.59543 28.975Z" fill="#231F20"/>
<path d="M40.8384 46.1926H40.8121L30.1881 44.3341C30.1444 44.3267 30.1054 44.3022 30.0798 44.266C30.0541 44.2299 30.0439 44.185 30.0513 44.1413C30.0587 44.0976 30.0832 44.0587 30.1194 44.033C30.1555 44.0074 30.2004 43.9971 30.2441 44.0046L40.8681 45.8631C40.9118 45.867 40.9521 45.8882 40.9802 45.9218C41.0084 45.9555 41.0219 45.999 41.018 46.0427C41.0141 46.0864 40.9929 46.1267 40.9593 46.1549C40.9256 46.183 40.8821 46.1966 40.8384 46.1926Z" fill="#D1D3D4"/>
<path d="M71.4681 67.8196L71.1386 67.7834C71.1386 67.6878 72.1766 58.148 68.8748 53.9102L69.1351 53.7092C70.5586 55.5348 71.3858 58.4676 71.5868 62.4253C71.678 64.2239 71.6384 66.0268 71.4681 67.8196Z" fill="#231F20"/>
<path d="M70.3312 69.0356C70.3259 68.9247 70.3371 68.8137 70.3642 68.706C71.1517 63.7137 69.8171 61.3872 68.5583 60.3129L68.7725 60.0625C70.0907 61.1895 71.501 63.6148 70.6904 68.7587C70.6706 68.884 70.6574 68.9664 70.6574 68.9993L70.3312 69.0356Z" fill="#231F20"/>
<path d="M68.6209 58.1942C68.3542 58.038 68.0532 57.9497 67.7444 57.9372C67.4704 57.8979 67.1912 57.9154 66.9242 57.9885C66.6572 58.0616 66.4081 58.1889 66.1923 58.3623C66.0836 58.4677 65.988 58.6457 66.0869 58.761C66.1455 58.8146 66.2191 58.849 66.2978 58.8599C66.5134 58.9213 66.7098 59.0368 66.8684 59.1954C67.027 59.354 67.1425 59.5504 67.204 59.7661C66.9766 59.598 66.7822 59.3838 66.5449 59.2158C66.3254 59.0317 66.0432 58.9396 65.7573 58.9587C65.4478 59.0318 65.1751 59.2144 64.9895 59.4728C64.7767 59.7005 64.6 59.9594 64.4656 60.2406C64.3253 60.5231 64.2836 60.8444 64.347 61.1534C64.6476 61.0668 64.9633 61.0455 65.2729 61.0908C65.4932 61.1106 65.7023 61.1968 65.8727 61.3379C65.924 61.3778 65.9611 61.4333 65.9781 61.4961C65.9836 61.56 65.9655 61.6238 65.9272 61.6754C65.889 61.7269 65.8333 61.7628 65.7705 61.7762C65.6448 61.8057 65.514 61.8057 65.3883 61.7762C65.1196 61.7212 64.8477 61.6826 64.5743 61.6609C64.4719 61.6476 64.3678 61.6543 64.2679 61.6806C64.1501 61.7464 64.0553 61.8468 63.9963 61.9682C63.9374 62.0896 63.9172 62.2262 63.9383 62.3595C63.9359 62.4147 63.9449 62.4698 63.9648 62.5214C63.9846 62.573 64.0149 62.62 64.0537 62.6593C64.1888 62.7648 64.3832 62.689 64.5414 62.6231C64.8173 62.5077 65.1124 62.4451 65.4113 62.4385C65.4451 62.4356 65.4792 62.4413 65.5102 62.455C65.5269 62.4667 65.541 62.4817 65.5515 62.4991C65.562 62.5166 65.5687 62.536 65.5712 62.5562C65.5736 62.5764 65.5719 62.5969 65.5659 62.6164C65.5599 62.6359 65.5499 62.6539 65.5366 62.6692C65.481 62.7312 65.4071 62.7739 65.3257 62.7911C65.0995 62.8628 64.8682 62.9168 64.6337 62.9526C64.4985 62.9724 64.3404 63.002 64.2745 63.124C64.2489 63.1774 64.2365 63.2361 64.2382 63.2953C64.225 63.7424 64.3542 64.182 64.6073 64.5508C64.6484 64.6177 64.7021 64.6759 64.7655 64.7222C64.856 64.7702 64.9563 64.7973 65.0587 64.8013C65.843 64.8824 66.6352 64.7692 67.3654 64.4717C67.4034 64.4586 67.4366 64.4345 67.461 64.4025C67.5038 64.3267 67.4313 64.2378 67.3753 64.1719C67.1315 63.872 67.1875 63.4403 67.2567 63.0613C67.2623 62.9877 67.2925 62.9181 67.3424 62.8636C67.3885 62.8325 67.4447 62.82 67.4997 62.8286C67.5547 62.8371 67.6044 62.8661 67.6389 62.9098C67.7055 62.9997 67.7434 63.1077 67.7477 63.2195C67.7963 63.6095 67.765 64.0053 67.6554 64.3828C68.0349 64.2943 68.4047 64.1685 68.7593 64.0071C69.0462 63.8958 69.3167 63.7461 69.5634 63.5622C69.8112 63.3753 69.9851 63.1069 70.0544 62.8043C70.0691 62.7481 70.0632 62.6885 70.0379 62.6363C70.0124 62.6001 69.9784 62.5707 69.939 62.5506C69.5954 62.3283 69.325 62.0096 69.1614 61.6345C69.1284 61.5554 69.1119 61.4467 69.1844 61.4071C69.2155 61.3973 69.2489 61.3973 69.28 61.4071C69.6952 61.4763 69.9061 61.941 70.2488 62.1881C70.2759 62.2106 70.3093 62.2244 70.3444 62.2276C70.3655 62.2276 70.3863 62.2233 70.4056 62.2147C70.4249 62.2062 70.4422 62.1938 70.4564 62.1782C70.5942 62.0502 70.6876 61.8817 70.7233 61.6971C70.8229 61.3345 70.802 60.9495 70.664 60.5998C70.593 60.4267 70.4838 60.2719 70.3446 60.147C70.2053 60.022 70.0397 59.9301 69.86 59.8781C69.6914 59.8392 69.5172 59.8314 69.3459 59.855C69.2866 59.855 68.9702 59.9671 68.9274 59.9275C68.8846 59.888 69.0526 59.6507 69.0922 59.5716C69.3064 59.0839 69.0197 58.4578 68.6209 58.1942Z" fill="#231F20"/>
<path d="M73.6002 55.212C73.3415 55.2097 73.0862 55.2707 72.8565 55.3896C72.6268 55.5085 72.4296 55.6816 72.282 55.8941C72.0824 56.2386 72.0014 56.6392 72.0514 57.0342C72.1028 57.4248 72.1979 57.8083 72.3348 58.1777C72.4622 57.949 72.6433 57.7547 72.8627 57.6117C73.082 57.4688 73.3329 57.3814 73.5936 57.3572C74.1307 57.3111 73.5046 57.8284 73.4123 57.9372C73.1092 58.293 72.8192 58.6588 72.5325 59.0279C72.4486 59.1202 72.3926 59.2345 72.371 59.3574C72.3701 59.49 72.4091 59.6198 72.4831 59.7298C72.7062 60.2239 73.0453 60.6569 73.4716 60.9919C73.5293 61.0425 73.6001 61.0758 73.6759 61.088C73.7517 61.1003 73.8293 61.0909 73.9 61.0611C73.9666 61.0053 74.0168 60.9324 74.045 60.8502C74.2027 60.5189 74.4081 60.2125 74.6547 59.9407C74.714 59.8715 74.8095 59.8023 74.8853 59.8517C74.9611 59.9011 74.9479 59.9769 74.9413 60.0494L74.8721 60.7843C74.8261 61.049 74.8419 61.3208 74.9183 61.5784C75.0929 62.0464 75.6202 62.2803 76.1112 62.3726C76.245 62.4089 76.386 62.4089 76.5198 62.3726C76.7834 62.2803 76.8922 61.9673 76.9383 61.6905C76.9902 61.328 77.1394 60.9864 77.37 60.7019C77.4299 61.1807 77.5833 61.6431 77.8214 62.0628C77.9407 62.2888 78.1057 62.4874 78.3058 62.6461C78.5189 62.7974 78.7633 62.8988 79.0209 62.9427C79.4556 63.021 79.8983 63.0453 80.339 63.0152C80.6439 63.0187 80.9477 62.9799 81.2419 62.8999C81.5383 62.8168 81.7925 62.625 81.9537 62.3627C82.214 61.8948 82.013 61.2918 81.6769 60.8765C81.3408 60.4613 80.886 60.1516 80.5367 59.7463C80.9727 59.8661 81.3782 60.0773 81.7263 60.3658C81.7674 60.4129 81.818 60.4508 81.8748 60.477C81.9316 60.5031 81.9933 60.5169 82.0559 60.5174C82.1139 60.5048 82.1667 60.4749 82.2074 60.4317C82.7281 59.911 82.1284 59.0312 81.8516 58.5633C81.7043 58.2303 81.4423 57.9614 81.1134 57.8053C80.9188 57.756 80.7149 57.756 80.5203 57.8053C80.2237 57.8548 78.754 58.5237 79.3801 57.6439C79.5486 57.449 79.7586 57.2943 79.9946 57.1911C80.2307 57.0878 80.4868 57.0388 80.7443 57.0474C80.9981 57.0705 81.3836 57.2748 81.377 56.8003C81.3593 56.6303 81.2929 56.4689 81.1859 56.3356C80.9822 56.0307 80.7622 55.737 80.5268 55.4558C80.4682 55.3697 80.3805 55.3076 80.2797 55.2812C80.1921 55.278 80.1057 55.3022 80.0326 55.3504C79.4315 55.7144 78.7676 55.9625 78.0752 56.0819C77.917 56.0819 77.6962 56.0325 77.7226 55.8776C77.7383 55.8212 77.7748 55.773 77.8247 55.7425C78.2432 55.413 78.8693 55.5547 79.2977 55.2515C79.3614 55.2109 79.4154 55.1569 79.4559 55.0931C79.4963 55.0293 79.5222 54.9574 79.5317 54.8824C79.5317 54.6616 79.3504 54.487 79.1725 54.3519C78.7277 53.9658 78.1828 53.7133 77.6006 53.6236C76.734 53.5544 75.953 54.1245 75.3697 54.7737C75.1753 54.9945 75.0402 55.5678 74.7403 55.5316C74.5513 55.4648 74.3664 55.3866 74.1867 55.2976C73.9969 55.2384 73.799 55.2095 73.6002 55.212Z" fill="#231F20"/>
<path d="M69.4019 50.6512C69.3648 50.3176 69.2121 50.0075 68.9702 49.7747C68.5287 49.3727 67.8663 49.3529 67.2765 49.4452C66.8343 49.5396 66.4002 49.6685 65.9781 49.8307C65.553 49.9526 65.4278 50.0482 65.8068 50.3942C66.0737 50.6347 66.7954 51.4948 66.4658 51.9067C66.1363 52.3186 65.5827 51.2674 65.3685 51.0928C65.0889 50.82 64.7176 50.6614 64.3272 50.6479C63.9854 50.7064 63.6713 50.8727 63.4309 51.1225C63.1741 51.3496 62.9299 51.5905 62.6993 51.8441C62.6619 51.8804 62.6327 51.9242 62.6136 51.9726C62.5609 52.1638 62.8212 52.2758 63.0157 52.3022C63.5726 52.4043 64.1954 52.6943 64.3074 53.2479C63.734 53.3896 63.1936 52.8096 62.607 52.8722C62.3941 52.9235 62.1971 53.0263 62.0333 53.1717C61.8695 53.3171 61.744 53.5006 61.6679 53.706C61.5096 54.0766 61.4604 54.4847 61.5262 54.8824C62.0212 54.7106 62.5514 54.6653 63.0684 54.7506C63.1328 54.7543 63.1937 54.7812 63.2397 54.8264C63.2633 54.8706 63.2686 54.9223 63.2544 54.9704C63.2403 55.0185 63.2078 55.059 63.1639 55.0834C63.0743 55.1281 62.9734 55.1453 62.874 55.1328H61.9183C61.8248 55.1229 61.7307 55.1449 61.6514 55.1954C61.587 55.262 61.5494 55.35 61.546 55.4426C61.4842 55.8794 61.4787 56.3224 61.5295 56.7607C61.5372 57.0329 61.6438 57.2929 61.8294 57.4922C61.9783 57.6049 62.1525 57.6795 62.3368 57.7097C62.8195 57.8256 63.3135 57.8875 63.8098 57.8943C63.7011 57.742 63.6308 57.5656 63.605 57.3803C63.5792 57.1949 63.5986 57.0061 63.6615 56.8299C63.8593 56.3685 64.1954 56.6355 64.2119 57.054C64.2119 57.2517 64.1756 57.4461 64.169 57.6438C64.1657 57.6812 64.1725 57.7188 64.1888 57.7526C64.2088 57.7783 64.2348 57.7986 64.2646 57.8119C64.5266 57.9535 64.8317 57.9933 65.1213 57.9239C65.204 57.9077 65.2817 57.8728 65.3487 57.8218C65.4241 57.7317 65.4762 57.6245 65.5004 57.5095C65.5245 57.3946 65.52 57.2755 65.4871 57.1627L65.352 55.9731C65.3446 55.9455 65.3437 55.9165 65.3495 55.8885C65.3552 55.8605 65.3673 55.8342 65.385 55.8116C65.4443 55.7523 65.5497 55.8116 65.6123 55.8578C65.7337 55.9657 65.8288 56.0998 65.8904 56.25C65.9521 56.4002 65.9787 56.5624 65.9682 56.7244C65.9682 56.9123 65.8891 57.0935 65.876 57.278C65.8625 57.371 65.8737 57.4659 65.9084 57.5532C65.9431 57.6405 66.0001 57.7172 66.0737 57.7756C66.1523 57.8134 66.2377 57.8352 66.3248 57.8397C66.4119 57.8442 66.499 57.8314 66.5812 57.802C66.8017 57.7699 67.0049 57.6642 67.1578 57.5021C67.2227 57.3993 67.2659 57.2842 67.2846 57.1641C67.3033 57.0439 67.2972 56.9212 67.2666 56.8035C67.2008 56.5694 67.1545 56.3302 67.1282 56.0884C67.1282 55.6007 67.6291 54.9021 67.7114 55.7589C67.7146 56.0387 67.6981 56.3184 67.662 56.5959C67.6538 56.6317 67.6538 56.6689 67.662 56.7047C67.6838 56.7336 67.7123 56.7567 67.745 56.7722C67.7777 56.7877 67.8137 56.7951 67.8498 56.7936C68.2374 56.8275 68.6266 56.7522 68.9735 56.5761C69.2127 56.46 69.4223 56.291 69.5865 56.0819C69.7083 55.9101 69.8111 55.7256 69.8929 55.5315C70.2916 54.6847 70.9276 54.0223 70.1862 53.1161C69.9325 52.8063 69.4612 52.724 69.224 52.4076C68.9439 52.0319 69.3756 51.4355 69.392 50.9643C69.4035 50.8603 69.4068 50.7557 69.4019 50.6512Z" fill="#231F20"/>
<path d="M67.026 66.8311H75.429L74.7699 73.1382C74.7225 73.6014 74.5048 74.0305 74.159 74.3423C73.8131 74.654 73.3638 74.8262 72.8982 74.8254H69.5403C69.0753 74.8254 68.6268 74.6528 68.2816 74.3412C67.9365 74.0295 67.7192 73.6009 67.6719 73.1382L67.026 66.8311Z" fill="white"/>
<path d="M72.9114 75.0001H69.5403C69.0323 75.001 68.5422 74.8129 68.1652 74.4724C67.7882 74.132 67.5513 73.6634 67.5005 73.158L66.8415 66.8508C66.8383 66.804 66.8537 66.7578 66.8843 66.7223C66.9006 66.7044 66.9204 66.6902 66.9426 66.6806C66.9647 66.6709 66.9887 66.666 67.0128 66.6663H75.4158C75.4395 66.6659 75.463 66.6707 75.4847 66.6803C75.5063 66.69 75.5255 66.7043 75.541 66.7223C75.5574 66.7391 75.5698 66.7594 75.5773 66.7816C75.5847 66.8039 75.5869 66.8276 75.5839 66.8508L74.9248 73.158C74.8753 73.6592 74.6424 74.1245 74.2707 74.4645C73.8991 74.8044 73.415 74.9952 72.9114 75.0001ZM67.2139 67.0057L67.84 73.125C67.8825 73.5463 68.08 73.9367 68.3942 74.2205C68.7085 74.5043 69.1169 74.6611 69.5403 74.6606H72.9114C73.3348 74.6611 73.7433 74.5043 74.0575 74.2205C74.3717 73.9367 74.5693 73.5463 74.6118 73.125L75.2412 67.0057H67.2139Z" fill="#231F20"/>
<path d="M72.3941 66.9464C72.3941 66.8871 71.735 60.8502 74.7008 55.9863L74.9842 56.1577C72.081 60.9227 72.7269 66.8476 72.7335 66.9069L72.3941 66.9464Z" fill="#231F20"/>
<path d="M64.7622 55.4951C64.7204 55.4942 64.6805 55.4777 64.6502 55.449C64.6347 55.4336 64.6225 55.4154 64.6141 55.3953C64.6057 55.3753 64.6014 55.3537 64.6014 55.332C64.6014 55.3102 64.6057 55.2887 64.6141 55.2686C64.6225 55.2485 64.6347 55.2303 64.6502 55.215C66.3703 53.4026 69.079 52.2987 69.1944 52.2492C69.235 52.2331 69.2804 52.2337 69.3206 52.251C69.3607 52.2683 69.3924 52.3009 69.4086 52.3415C69.4247 52.3821 69.4241 52.4275 69.4068 52.4677C69.3895 52.5079 69.3569 52.5395 69.3163 52.5557C69.2899 52.5557 66.5581 53.6761 64.8874 55.4391C64.8718 55.4568 64.8525 55.4711 64.8309 55.4807C64.8093 55.4904 64.7859 55.4953 64.7622 55.4951Z" fill="white"/>
<path d="M65.9221 63.8917C65.894 63.8915 65.8663 63.884 65.8418 63.8701C65.8174 63.8561 65.7969 63.8361 65.7823 63.812C65.7678 63.7879 65.7597 63.7604 65.7588 63.7322C65.7578 63.7041 65.7642 63.6762 65.7771 63.6511C66.4022 62.4771 67.1947 61.4004 68.13 60.4547C68.145 60.4394 68.1629 60.4272 68.1827 60.4189C68.2026 60.4105 68.2238 60.4062 68.2453 60.4062C68.2668 60.4062 68.288 60.4105 68.3078 60.4189C68.3277 60.4272 68.3456 60.4394 68.3606 60.4547C68.3908 60.4855 68.4077 60.5269 68.4077 60.57C68.4077 60.6132 68.3908 60.6546 68.3606 60.6854C67.4526 61.608 66.6823 62.6568 66.0737 63.7994C66.0596 63.8274 66.0379 63.8509 66.0111 63.8672C65.9843 63.8835 65.9535 63.892 65.9221 63.8917Z" fill="white"/>
<path d="M79.9336 61.5586C79.9065 61.5583 79.8797 61.5516 79.8557 61.539C79.8316 61.5264 79.8109 61.5083 79.7952 61.4861C79.7161 61.3642 77.818 58.5203 75.5674 56.8397C75.5324 56.8135 75.5093 56.7745 75.5031 56.7312C75.4969 56.688 75.5082 56.644 75.5344 56.6091C75.5612 56.5748 75.6001 56.5523 75.6431 56.5461C75.6861 56.54 75.7298 56.5507 75.7651 56.5761C78.0125 58.2732 79.8644 60.9984 80.0687 61.3015C80.0926 61.3379 80.1011 61.3822 80.0925 61.4247C80.0838 61.4673 80.0587 61.5048 80.0226 61.5289C79.9968 61.548 79.9657 61.5583 79.9336 61.5586Z" fill="white"/>
<path d="M59.0547 4.31958H79.0603V18.3641H59.0547V4.31958Z" fill="white"/>
<path d="M79.0571 18.5288H59.0548C59.0111 18.5288 58.9692 18.5114 58.9383 18.4805C58.9074 18.4497 58.89 18.4077 58.89 18.364V4.31955C58.89 4.27585 58.9074 4.23394 58.9383 4.20304C58.9692 4.17214 59.0111 4.15479 59.0548 4.15479H79.0571C79.1008 4.15479 79.1427 4.17214 79.1736 4.20304C79.2045 4.23394 79.2219 4.27585 79.2219 4.31955V18.364C79.2219 18.4077 79.2045 18.4497 79.1736 18.4805C79.1427 18.5114 79.1008 18.5288 79.0571 18.5288ZM59.2195 18.1993H78.8924V4.48431H59.2195V18.1993Z" fill="#D1D3D4"/>
<path d="M71.9656 31.6967C71.9263 31.6965 71.8883 31.6826 71.8582 31.6573C71.8281 31.632 71.8078 31.597 71.8009 31.5583L70.9902 26.299L69.5733 26.9251C69.5534 26.9338 69.5319 26.9385 69.5102 26.9389C69.4885 26.9393 69.4669 26.9355 69.4467 26.9275C69.4265 26.9195 69.408 26.9076 69.3924 26.8925C69.3768 26.8774 69.3644 26.8594 69.3558 26.8394C69.3471 26.8197 69.3424 26.7986 69.3421 26.7771C69.3417 26.7556 69.3456 26.7343 69.3536 26.7143C69.3616 26.6944 69.3735 26.6762 69.3885 26.6609C69.4036 26.6456 69.4216 26.6335 69.4414 26.6252L71.0594 25.9266C71.0819 25.9153 71.1067 25.9094 71.1319 25.9094C71.1571 25.9094 71.1819 25.9153 71.2044 25.9266C71.2267 25.9387 71.246 25.9556 71.2608 25.9761C71.2757 25.9967 71.2857 26.0203 71.2901 26.0452L72.1337 31.4989C72.1374 31.5204 72.1368 31.5424 72.1318 31.5636C72.1268 31.5849 72.1175 31.6049 72.1046 31.6224C72.0917 31.64 72.0753 31.6547 72.0565 31.6658C72.0377 31.6768 72.0169 31.684 71.9953 31.6868L71.9656 31.6967Z" fill="#231F20"/>
<path d="M74.76 37.3417H70.6344L70.4103 28.4609H74.9841L74.76 37.3417Z" fill="white"/>
<path d="M74.76 37.5032H70.6344C70.5918 37.5032 70.5508 37.4867 70.5201 37.4573C70.4894 37.4278 70.4713 37.3875 70.4696 37.345L70.2323 28.4675C70.2316 28.4234 70.2481 28.3808 70.2785 28.3489C70.3096 28.3164 70.3522 28.2975 70.3971 28.2961H74.9709C75.015 28.2986 75.0564 28.3177 75.087 28.3495C75.1175 28.3812 75.1349 28.4234 75.1357 28.4675L74.9116 37.3648C74.9058 37.4016 74.8876 37.4353 74.86 37.4604C74.8325 37.4856 74.7972 37.5006 74.76 37.5032ZM70.8057 37.1736H74.6085L74.8227 28.6224H70.5783L70.8057 37.1736Z" fill="#231F20"/>
<path d="M69.9918 27.561H75.4027V28.4606H69.9918V27.561Z" fill="white"/>
<path d="M75.4026 28.6254H69.9918C69.9481 28.6254 69.9062 28.608 69.8753 28.5771C69.8444 28.5462 69.827 28.5043 69.827 28.4606V27.561C69.827 27.5173 69.8444 27.4754 69.8753 27.4445C69.9062 27.4136 69.9481 27.3962 69.9918 27.3962H75.4026C75.4463 27.3962 75.4883 27.4136 75.5192 27.4445C75.5501 27.4754 75.5674 27.5173 75.5674 27.561V28.4606C75.5674 28.5043 75.5501 28.5462 75.5192 28.5771C75.4883 28.608 75.4463 28.6254 75.4026 28.6254ZM70.1566 28.2959H75.2379V27.7258H70.1566V28.2959Z" fill="#231F20"/>
<path d="M72.7862 34.3429C72.3897 34.3768 71.9923 34.2902 71.6458 34.0945C71.2994 33.8988 71.02 33.6031 70.8443 33.2461C70.6685 32.8891 70.6046 32.4874 70.6608 32.0935C70.7171 31.6996 70.8909 31.3318 71.1595 31.0382C71.4281 30.7447 71.779 30.539 72.1664 30.4481C72.5538 30.3571 72.9596 30.3852 73.3308 30.5286C73.7019 30.672 74.0212 30.9241 74.2468 31.2519C74.4724 31.5796 74.5939 31.9679 74.5953 32.3658C74.6168 32.8676 74.4384 33.3576 74.0993 33.7282C73.7602 34.0988 73.288 34.3198 72.7862 34.3429ZM72.7862 30.7346C72.4553 30.7007 72.1218 30.7677 71.8297 30.9269C71.5376 31.0861 71.3005 31.33 71.1497 31.6265C70.9988 31.923 70.9413 32.2583 70.9846 32.5881C71.0279 32.918 71.17 33.227 71.3923 33.4745C71.6145 33.722 71.9065 33.8965 72.2298 33.9749C72.5532 34.0533 72.8926 34.032 73.2036 33.9138C73.5146 33.7956 73.7825 33.586 73.9721 33.3126C74.1617 33.0393 74.2641 32.7149 74.2658 32.3822C74.2874 31.9677 74.1437 31.5616 73.8664 31.2527C73.5891 30.9439 73.2006 30.7576 72.7862 30.7346Z" fill="#D1D3D4"/>
<path d="M64.927 15.5828C64.523 15.5802 64.1222 15.5112 63.7407 15.3785C63.2418 15.2217 62.7595 15.0164 62.3006 14.7655C62.1886 14.7029 62.0799 14.6304 61.9711 14.5579C61.6959 14.38 61.46 14.1476 61.2781 13.875C61.0962 13.6024 60.972 13.2954 60.9133 12.9729C60.8707 12.7362 60.9102 12.492 61.0254 12.2809C61.208 12.0305 61.4601 11.8392 61.7503 11.7306C61.9431 11.6507 62.1213 11.5394 62.2776 11.4011C62.6071 11.0485 62.4786 10.5344 62.3468 9.99068C62.3105 9.85228 62.2776 9.71717 62.2512 9.58536C62.1682 9.16416 62.1814 8.72964 62.2898 8.31424C62.3982 7.89885 62.599 7.5133 62.8773 7.1864C63.1818 6.84636 63.5622 6.58291 63.9876 6.41744C64.413 6.25197 64.8715 6.18914 65.3257 6.23406C66.6043 6.37905 67.6126 6.99527 68.0938 7.92125C68.3041 8.35375 68.402 8.83232 68.3784 9.31269C68.3548 9.79306 68.2104 10.2597 67.9586 10.6695C67.7805 10.9207 67.6797 11.2185 67.6687 11.5263C67.7358 11.7978 67.8786 12.0446 68.0806 12.2381C68.3152 12.4764 68.4813 12.7735 68.5617 13.0981C68.6408 13.6386 68.2849 14.1559 67.4742 14.6799C66.7327 15.2253 65.8465 15.5395 64.927 15.5828ZM62.4654 14.4756C62.9051 14.7173 63.3676 14.9148 63.8461 15.0654C65.2367 15.5399 66.3275 15.0226 67.2996 14.4064C67.9916 13.9549 68.2882 13.5463 68.2387 13.1476C68.1652 12.8833 68.0244 12.6426 67.8301 12.449C67.5861 12.2067 67.4178 11.8987 67.3457 11.5625C67.3414 11.1957 67.4508 10.8366 67.6588 10.5344C67.8888 10.1697 68.0227 9.7527 68.048 9.32227C68.0734 8.89185 67.9894 8.46201 67.8038 8.07283C67.3754 7.24571 66.4593 6.6954 65.2928 6.56029C64.8909 6.52022 64.4853 6.57575 64.1091 6.72236C63.7328 6.86898 63.3965 7.10251 63.1278 7.40389C62.8829 7.6931 62.7062 8.03375 62.611 8.40056C62.5157 8.76736 62.5042 9.15091 62.5774 9.52275C62.6038 9.64797 62.6368 9.77978 62.6697 9.91159C62.8114 10.4883 62.9729 11.144 62.5214 11.6251C62.3395 11.7969 62.1287 11.9353 61.8986 12.0338C61.6672 12.1179 61.464 12.2652 61.3121 12.4588C61.2353 12.6068 61.2109 12.7764 61.2429 12.94C61.298 13.2169 61.4084 13.4799 61.5675 13.7132C61.7266 13.9465 61.9311 14.1452 62.1688 14.2976C62.2644 14.3674 62.3634 14.4322 62.4654 14.492V14.4756Z" fill="#D1D3D4"/>
<path d="M73.9 15.4871C73.0543 15.4757 72.2187 15.3024 71.4384 14.9764L71.2736 14.9105C70.93 14.714 70.5382 14.6179 70.1426 14.633C69.7471 14.6482 69.3637 14.774 69.0361 14.9961C68.6757 15.1822 68.289 15.3122 67.8894 15.3817C67.4427 15.4208 66.9933 15.3479 66.5818 15.1695C66.1704 14.9912 65.81 14.713 65.5332 14.3601C65.0555 13.8265 64.742 13.1663 64.6303 12.4588C64.5636 12.0331 64.6347 11.5972 64.8333 11.2148C65.0319 10.8324 65.3476 10.5235 65.7343 10.3333C66.4988 10.0038 67.3127 10.2312 68.1036 10.4552C68.6706 10.6581 69.2714 10.7498 69.8731 10.7254C70.3347 10.6482 70.7802 10.4945 71.1913 10.2707C71.4607 10.1366 71.738 10.0188 72.0217 9.91811C73.3398 9.47983 75.887 9.91811 76.8888 11.0187C77.159 11.3017 77.3512 11.6499 77.4465 12.0294C77.5418 12.4089 77.537 12.8067 77.4325 13.1837C77.2829 13.6768 77.0153 14.1259 76.653 14.4922C76.2907 14.8585 75.8445 15.1311 75.3532 15.2861C74.8824 15.4292 74.3919 15.497 73.9 15.4871ZM70.2521 14.3008H70.3312C70.7029 14.3375 71.0654 14.439 71.4021 14.6007L71.5603 14.6666C72.7121 15.1868 74.0094 15.2882 75.228 14.9533C75.6669 14.8161 76.0659 14.5744 76.3908 14.2489C76.7157 13.9235 76.9567 13.524 77.0931 13.0849C77.1818 12.7602 77.185 12.4182 77.1025 12.0919C77.0199 11.7657 76.8543 11.4664 76.6219 11.223C75.719 10.2345 73.3101 9.80936 72.104 10.2147C71.8328 10.3081 71.5676 10.4182 71.3099 10.5442C70.8716 10.7868 70.3961 10.955 69.9028 11.0418C69.2577 11.0706 68.6132 10.9743 68.0047 10.7584C67.2402 10.5409 66.5152 10.3333 65.8595 10.6233C65.541 10.788 65.2826 11.049 65.1211 11.3691C64.9596 11.6891 64.9032 12.052 64.9599 12.406C65.0661 13.0534 65.3567 13.6563 65.7969 14.1427C66.1462 14.5348 66.8777 15.1807 67.8663 15.0555C68.2315 14.9883 68.5846 14.8672 68.9142 14.6963C69.3266 14.4698 69.7829 14.3349 70.2521 14.3008Z" fill="#D1D3D4"/>
<path d="M73.432 13.019C73.2124 13.033 72.9925 12.9959 72.7895 12.9107C72.5866 12.8255 72.4061 12.6946 72.2622 12.5281C72.1016 12.3676 71.9171 12.2331 71.7152 12.1293C71.4736 12.0152 71.2136 11.9449 70.9474 11.9217C70.7104 11.9151 70.4774 11.8589 70.2634 11.7568C70.0494 11.6546 69.8592 11.5087 69.7051 11.3286C69.5334 11.1057 69.4118 10.8485 69.3487 10.5744C69.2855 10.3002 69.2823 10.0157 69.3393 9.74024C69.409 9.37915 69.5535 9.03664 69.7635 8.73472C69.9734 8.4328 70.2443 8.17816 70.5585 7.98715C72.2952 6.96562 75.5179 8.02999 76.5691 9.53923C76.9415 10.0731 77.3666 11.1309 76.0419 12.2018C75.3456 12.7182 74.5063 13.0061 73.6396 13.0256L73.432 13.019ZM72.2457 7.89818C71.7168 7.88085 71.1928 8.00362 70.7266 8.25407C70.4532 8.42125 70.2177 8.64356 70.035 8.90681C69.8523 9.17007 69.7265 9.4685 69.6655 9.78308C69.6162 10.0114 69.6174 10.2477 69.6692 10.4754C69.721 10.7031 69.8221 10.9167 69.9654 11.1012C70.0936 11.2483 70.2515 11.3666 70.4287 11.4484C70.6059 11.5302 70.7984 11.5736 70.9935 11.5757C71.5653 11.6111 72.1014 11.8662 72.4896 12.2875C72.6257 12.448 72.8023 12.569 73.0011 12.638C73.1999 12.7069 73.4136 12.7213 73.6199 12.6796C74.4161 12.6567 75.1873 12.3962 75.8343 11.9316C76.6746 11.2495 76.8229 10.4817 76.2989 9.71388C75.5937 8.69893 73.7813 7.89818 72.2457 7.89818Z" fill="#D1D3D4"/>
<path d="M23.1427 11.8195C23.1427 11.8195 24.2071 10.9561 23.1427 9.84229H21.4259C21.4259 9.84229 21.795 11.2823 21.4259 11.8195H23.1427Z" fill="#231F20"/>
<path d="M23.1428 11.9843H21.426C21.3956 11.984 21.3658 11.9755 21.3398 11.9599C21.3137 11.9443 21.2923 11.922 21.2777 11.8953C21.2623 11.8694 21.2542 11.8398 21.2542 11.8097C21.2542 11.7795 21.2623 11.7499 21.2777 11.724C21.5446 11.3384 21.3502 10.2675 21.2513 9.88851C21.2462 9.8636 21.2461 9.8379 21.2512 9.81297C21.2563 9.78805 21.2665 9.76442 21.281 9.74352C21.2968 9.72385 21.3169 9.708 21.3397 9.69716C21.3625 9.68632 21.3875 9.68077 21.4128 9.68091H23.1296C23.1739 9.68234 23.2161 9.69993 23.2482 9.73034C23.4144 9.88176 23.5467 10.0666 23.6365 10.2728C23.7262 10.4789 23.7713 10.7017 23.7689 10.9265C23.7274 11.3225 23.5365 11.6878 23.2351 11.9481C23.2087 11.9691 23.1765 11.9818 23.1428 11.9843ZM21.683 11.6548H23.0769C23.2832 11.4554 23.4118 11.189 23.4394 10.9035C23.4401 10.7367 23.4069 10.5715 23.3417 10.418C23.2766 10.2645 23.1809 10.1258 23.0604 10.0104H21.6237C21.7626 10.5477 21.7828 11.1089 21.683 11.6548Z" fill="#231F20"/>
<path d="M22.2102 11.1671C22.2352 10.9749 22.2144 10.7796 22.1497 10.597C22.085 10.4143 21.9782 10.2495 21.8379 10.1159C21.712 9.95211 21.5671 9.80389 21.4062 9.67432C21.0972 9.47338 20.7509 9.33666 20.3879 9.2723C19.5872 9.07787 18.6513 9.32502 17.8341 9.3415C16.9562 9.35815 16.0841 9.19672 15.2704 8.86698C14.9908 8.77255 14.74 8.60805 14.5421 8.38916C14.3378 9.58535 14.3642 10.9035 15.0529 11.9085C15.6364 12.6672 16.4432 13.2238 17.3596 13.5001C17.9688 13.7459 18.6323 13.8257 19.2824 13.7313C19.9325 13.637 20.546 13.3718 21.0602 12.963C21.5301 12.6082 21.8928 12.1303 22.1081 11.5823C22.1558 11.4476 22.19 11.3085 22.2102 11.1671Z" fill="white"/>
<path d="M18.7864 13.9285C18.2758 13.9234 17.7698 13.8309 17.2904 13.6549C16.3433 13.3687 15.51 12.7924 14.9079 12.0073C14.2916 11.1077 14.1137 9.88514 14.374 8.3825C14.3798 8.35124 14.3943 8.32227 14.4159 8.29894C14.4375 8.27561 14.4652 8.25888 14.496 8.25068C14.5267 8.24299 14.559 8.24451 14.5889 8.25505C14.6188 8.2656 14.6449 8.28471 14.664 8.31C14.845 8.50501 15.0714 8.65218 15.3231 8.73839C16.1247 9.04534 16.9794 9.18984 17.8374 9.16348C18.1076 9.16348 18.3877 9.12723 18.6843 9.09428C19.2632 8.99369 19.8551 8.99369 20.4341 9.09428C20.8195 9.16273 21.1872 9.30845 21.5149 9.52266C21.6831 9.6627 21.8365 9.81949 21.973 9.99059C22.1284 10.1423 22.2461 10.3284 22.3165 10.5338C22.3869 10.7393 22.408 10.9584 22.3783 11.1736C22.3536 11.3269 22.3127 11.4771 22.2563 11.6218C22.029 12.1976 21.6484 12.7001 21.1557 13.075C20.4863 13.6212 19.6504 13.9224 18.7864 13.9285ZM14.6508 8.7252C14.4795 10.0104 14.6508 11.0319 15.1814 11.8129C15.7421 12.5445 16.5193 13.0807 17.4024 13.3452C17.986 13.5798 18.6213 13.6561 19.2439 13.5664C19.8665 13.4767 20.4544 13.2242 20.9481 12.8344C21.3922 12.4939 21.7341 12.0379 21.9367 11.5163C21.9854 11.3928 22.0218 11.2647 22.0454 11.1341C22.0665 10.9652 22.0477 10.7938 21.9905 10.6335C21.9333 10.4732 21.8392 10.3287 21.7159 10.2114C21.5937 10.0678 21.4568 9.93745 21.3073 9.82253C21.0152 9.63665 20.6894 9.51012 20.3484 9.45017C19.8032 9.3564 19.2459 9.3564 18.7007 9.45017C18.4108 9.47983 18.1076 9.51278 17.8242 9.51937C16.9221 9.53384 16.026 9.36919 15.188 9.03496C14.9972 8.9535 14.8169 8.84951 14.6508 8.7252Z" fill="#231F20"/>
<path d="M42.552 2.57642H56.5438V11.8164H42.552V2.57642Z" fill="white"/>
<path d="M56.5437 11.9843H42.552C42.5083 11.9843 42.4664 11.9669 42.4355 11.936C42.4046 11.9051 42.3872 11.8632 42.3872 11.8195V2.57297C42.3872 2.52927 42.4046 2.48736 42.4355 2.45646C42.4664 2.42556 42.5083 2.4082 42.552 2.4082H56.5437C56.5872 2.40905 56.6286 2.42668 56.6593 2.4574C56.69 2.48811 56.7077 2.52953 56.7085 2.57297V11.8195C56.7077 11.863 56.69 11.9044 56.6593 11.9351C56.6286 11.9658 56.5872 11.9834 56.5437 11.9843ZM42.7036 11.6548H56.3922V2.74103H42.7167L42.7036 11.6548Z" fill="#D1D3D4"/>
<path d="M42.552 11.8196H56.5438V13.6485H42.552V11.8196Z" fill="white"/>
<path d="M56.5437 13.8132H42.552C42.5083 13.8132 42.4664 13.7958 42.4355 13.7649C42.4046 13.734 42.3872 13.6921 42.3872 13.6484V11.8195C42.3872 11.7759 42.4046 11.7339 42.4355 11.703C42.4664 11.6721 42.5083 11.6548 42.552 11.6548H56.5437C56.5874 11.6548 56.6293 11.6721 56.6602 11.703C56.6911 11.7339 56.7085 11.7759 56.7085 11.8195V13.6484C56.7085 13.6921 56.6911 13.734 56.6602 13.7649C56.6293 13.7958 56.5874 13.8132 56.5437 13.8132ZM42.7036 13.4837H56.3922V11.9843H42.7167L42.7036 13.4837Z" fill="#D1D3D4"/>
<path d="M44.1535 9.66761C44.1221 9.66885 44.091 9.66086 44.064 9.64464C44.037 9.62842 44.0154 9.60467 44.0017 9.57631C43.988 9.54795 43.983 9.51622 43.9871 9.48502C43.9913 9.45382 44.0044 9.42451 44.025 9.40069C44.1832 9.20298 47.9794 4.54674 51.5185 4.82684C52.9289 4.93888 53.8911 5.67702 54.0954 6.80401C54.1875 7.2865 54.1176 7.78592 53.8965 8.22455C53.6754 8.66318 53.3155 9.01643 52.8728 9.22934C51.8843 9.68738 50.9682 9.68079 50.3289 9.20957C50.0516 8.98817 49.8412 8.69405 49.7214 8.36005C49.6015 8.02604 49.5768 7.66529 49.6501 7.31808C49.6632 7.01829 49.7697 6.73011 49.9546 6.49379C50.1395 6.25747 50.3937 6.08482 50.6815 5.99996C50.9797 5.92134 51.2936 5.92421 51.5904 6.00825C51.8872 6.0923 52.1559 6.25444 52.3687 6.47778C52.4664 6.58551 52.5291 6.72038 52.5485 6.86455C52.568 7.00871 52.5432 7.15536 52.4774 7.28512C52.227 7.76953 51.9304 8.02327 51.5943 8.03645C51.0571 8.03645 50.6617 7.42682 50.6452 7.40046C50.6339 7.38188 50.6263 7.36123 50.623 7.33971C50.6196 7.31819 50.6206 7.29623 50.6258 7.27509C50.631 7.25394 50.6404 7.23404 50.6533 7.21653C50.6663 7.19902 50.6826 7.18426 50.7013 7.17308C50.7196 7.1618 50.74 7.15429 50.7612 7.151C50.7825 7.14771 50.8042 7.1487 50.8251 7.15392C50.846 7.15914 50.8656 7.16848 50.8828 7.18139C50.9 7.1943 50.9145 7.21052 50.9253 7.2291C51.011 7.36421 51.2845 7.72339 51.5844 7.70692C51.8843 7.69044 52.0523 7.37739 52.1841 7.13354C52.2205 7.06066 52.2331 6.97819 52.2201 6.89778C52.2071 6.81737 52.1691 6.74307 52.1116 6.68538C51.9404 6.51124 51.7261 6.38541 51.4906 6.3206C51.2551 6.2558 51.0067 6.25432 50.7705 6.31631C50.5456 6.38571 50.3481 6.52377 50.2057 6.71111C50.0632 6.89845 49.983 7.12568 49.9763 7.36091C49.913 7.64887 49.9306 7.94872 50.0272 8.22729C50.1237 8.50587 50.2954 8.75231 50.5233 8.93935C51.0604 9.33808 51.8678 9.33479 52.7344 8.93935C53.1118 8.7549 53.417 8.4501 53.6019 8.07302C53.7869 7.69594 53.8411 7.26802 53.756 6.85673C53.5813 5.89122 52.7311 5.25523 51.4789 5.15637C48.1276 4.87957 44.3183 9.55887 44.282 9.6083C44.2662 9.62693 44.2465 9.6419 44.2243 9.65214C44.2021 9.66239 44.178 9.66767 44.1535 9.66761Z" fill="#D1D3D4"/>
<path d="M49.617 20.4103H44.2259C44.1822 20.4103 44.1403 20.3929 44.1094 20.362C44.0785 20.3311 44.0612 20.2892 44.0612 20.2455V15.9616C44.0612 15.9179 44.0785 15.876 44.1094 15.8451C44.1403 15.8142 44.1822 15.7969 44.2259 15.7969H49.617C49.6607 15.7969 49.7026 15.8142 49.7335 15.8451C49.7644 15.876 49.7818 15.9179 49.7818 15.9616V20.2455C49.7818 20.2892 49.7644 20.3311 49.7335 20.362C49.7026 20.3929 49.6607 20.4103 49.617 20.4103ZM44.3907 20.0807H49.4522V16.1264H44.3907V20.0807Z" fill="#D1D3D4"/>
<path d="M46.9215 16.7425C46.8778 16.7425 46.8359 16.7252 46.805 16.6943C46.7741 16.6634 46.7567 16.6215 46.7567 16.5778V15.5529C46.7567 15.5092 46.7741 15.4673 46.805 15.4364C46.8359 15.4055 46.8778 15.3882 46.9215 15.3882C46.9652 15.3882 47.0071 15.4055 47.038 15.4364C47.0689 15.4673 47.0862 15.5092 47.0862 15.5529V16.5712C47.0871 16.5934 47.0835 16.6155 47.0756 16.6363C47.0678 16.657 47.0558 16.676 47.0404 16.692C47.025 16.708 47.0065 16.7207 46.9861 16.7294C46.9657 16.7381 46.9437 16.7426 46.9215 16.7425Z" fill="#D1D3D4"/>
</svg>
