<svg width="83" height="83" viewBox="0 0 83 83" fill="none" xmlns="http://www.w3.org/2000/svg">
<path d="M41.5 31.6178C39.5456 31.6185 37.6354 32.1987 36.0108 33.2851C34.3861 34.3714 33.1201 35.915 32.3727 37.7208C31.6253 39.5266 31.4301 41.5135 31.8119 43.4302C32.1936 45.3469 33.1351 47.1074 34.5173 48.4891C35.8994 49.8708 37.6603 50.8116 39.5771 51.1926C41.494 51.5736 43.4808 51.3777 45.2863 50.6296C47.0918 49.8815 48.635 48.6149 49.7207 46.9899C50.8064 45.3648 51.3859 43.4544 51.3859 41.5C51.3839 38.879 50.3416 36.366 48.488 34.5131C46.6343 32.6601 44.121 31.6188 41.5 31.6178ZM64.6048 24.0218C64.1017 22.7469 63.342 21.5889 62.3728 20.6198C61.4037 19.6506 60.2457 18.8909 58.9708 18.3878C55.0801 16.852 45.8167 17.1966 41.5 17.1966C37.1833 17.1966 27.9291 16.839 24.0274 18.3878C22.7525 18.8909 21.5945 19.6506 20.6253 20.6198C19.6562 21.5889 18.8965 22.7469 18.3934 24.0218C16.8594 27.9125 17.2021 37.1851 17.2021 41.4981C17.2021 45.8112 16.8594 55.0727 18.4008 58.9763C18.9039 60.2512 19.6636 61.4092 20.6327 62.3784C21.6019 63.3475 22.7599 64.1072 24.0348 64.6103C27.9254 66.1462 37.1888 65.8016 41.5074 65.8016C45.826 65.8016 55.0764 66.1591 58.9782 64.6103C60.2531 64.1072 61.4111 63.3475 62.3802 62.3784C63.3494 61.4092 64.1091 60.2512 64.6122 58.9763C66.1591 55.0857 65.8034 45.813 65.8034 41.5C65.8034 37.187 66.1591 27.9273 64.6122 24.0237L64.6048 24.0218ZM41.5 56.692C38.4953 56.692 35.5581 55.801 33.0598 54.1317C30.5615 52.4623 28.6143 50.0897 27.4645 47.3137C26.3146 44.5377 26.0138 41.4831 26.5999 38.5362C27.1861 35.5892 28.633 32.8823 30.7577 30.7577C32.8823 28.633 35.5892 27.1861 38.5362 26.5999C41.4831 26.0138 44.5377 26.3146 47.3137 27.4645C50.0897 28.6143 52.4623 30.5615 54.1317 33.0598C55.801 35.5581 56.692 38.4953 56.692 41.5C56.6944 43.4957 56.3031 45.4723 55.5405 47.3166C54.7779 49.1609 53.659 50.8366 52.2478 52.2478C50.8366 53.659 49.1609 54.7779 47.3166 55.5405C45.4723 56.3031 43.4957 56.6944 41.5 56.692ZM57.3182 29.2167C56.6168 29.2171 55.931 29.0094 55.3476 28.62C54.7642 28.2306 54.3094 27.6769 54.0407 27.029C53.7721 26.3811 53.7016 25.668 53.8382 24.9801C53.9748 24.2921 54.3124 23.6601 54.8082 23.1639C55.3041 22.6678 55.9359 22.3299 56.6238 22.193C57.3118 22.056 58.0248 22.1261 58.6729 22.3944C59.321 22.6628 59.8749 23.1173 60.2646 23.7005C60.6543 24.2836 60.8623 24.9693 60.8623 25.6707C60.8643 26.1365 60.7743 26.5981 60.5974 27.029C60.4206 27.4599 60.1604 27.8517 59.8318 28.1818C59.5032 28.512 59.1127 28.774 58.6826 28.9528C58.2525 29.1317 57.7914 29.2239 57.3256 29.2242L57.3182 29.2167ZM74.1071 0H8.89286C6.53432 0 4.27239 0.936924 2.60466 2.60466C0.936923 4.27239 0 6.53432 0 8.89286L0 74.1071C0 76.4657 0.936923 78.7276 2.60466 80.3953C4.27239 82.0631 6.53432 83 8.89286 83H74.1071C76.4657 83 78.7276 82.0631 80.3953 80.3953C82.0631 78.7276 83 76.4657 83 74.1071V8.89286C83 6.53432 82.0631 4.27239 80.3953 2.60466C78.7276 0.936924 76.4657 0 74.1071 0ZM70.9354 53.7277C70.6964 58.4761 69.6125 62.6835 66.1462 66.1406C62.6798 69.5977 58.4761 70.7038 53.7332 70.9298C48.8403 71.2058 34.1708 71.2058 29.2779 70.9298C24.5295 70.6908 20.3369 69.6051 16.8649 66.1406C13.393 62.6761 12.3018 58.4668 12.0758 53.7277C11.7997 48.8329 11.7997 34.1615 12.0758 29.2723C12.3148 24.5239 13.3856 20.3165 16.8649 16.8594C20.3443 13.4023 24.548 12.3092 29.2779 12.0832C34.1708 11.8071 48.8403 11.8071 53.7332 12.0832C58.4816 12.3222 62.6872 13.4078 66.1462 16.8723C69.6051 20.3369 70.7093 24.5461 70.9354 29.2946C71.2114 34.1708 71.2114 48.8292 70.9354 53.7277Z" fill="#874CF5" fill-opacity="0.64"/>
</svg>
