<svg width="83" height="83" viewBox="0 0 83 83" fill="none" xmlns="http://www.w3.org/2000/svg">
<path d="M76.8771 0.000314312H6.12295C4.51759 -0.0160236 2.97131 0.605156 1.82341 1.72755C0.675503 2.84995 0.0197372 4.38188 0 5.9872V77.027C0.0233066 78.63 0.680642 80.1584 1.82816 81.2779C2.97567 82.3974 4.51992 83.0167 6.12295 83.0003H76.8771C78.4825 83.013 80.0277 82.3898 81.1751 81.2667C82.3224 80.1436 82.9785 78.612 83 77.0066V5.96679C82.9714 4.36617 82.3121 2.84155 81.1656 1.7243C80.0191 0.607062 78.4779 -0.0124906 76.8771 0.000314312Z" fill="#874CF5" fill-opacity="0.64"/>
<path d="M12.2867 31.1118H24.6074V70.7545H12.2867V31.1118ZM18.4505 11.3823C19.8636 11.3823 21.245 11.8015 22.4198 12.5867C23.5947 13.3719 24.5103 14.488 25.0508 15.7937C25.5913 17.0994 25.7323 18.536 25.4561 19.9219C25.18 21.3078 24.4989 22.5806 23.4992 23.5793C22.4995 24.5781 21.226 25.2579 19.8399 25.5328C18.4538 25.8076 17.0172 25.6652 15.7121 25.1235C14.4069 24.5818 13.2917 23.6651 12.5076 22.4895C11.7235 21.3139 11.3057 19.9321 11.307 18.519C11.3088 16.6256 12.0622 14.8104 13.4017 13.4722C14.7411 12.134 16.5571 11.3823 18.4505 11.3823Z" fill="white"/>
<path d="M31 30.9593H42.8105V36.402H42.9738C44.6202 33.2861 48.6341 30.0001 54.6278 30.0001C67.105 29.9729 69.4181 38.1844 69.4181 48.8315V70.602H57.0974V51.3147C57.0974 46.7225 57.0157 40.8105 50.6955 40.8105C44.3752 40.8105 43.3003 45.8177 43.3003 51.0154V70.602H31V30.9593Z" fill="white"/>
</svg>
