<?xml version="1.0" standalone="no"?>
<!DOCTYPE svg PUBLIC "-//W3C//DTD SVG 20010904//EN"
 "http://www.w3.org/TR/2001/REC-SVG-20010904/DTD/svg10.dtd">
<svg version="1.0" xmlns="http://www.w3.org/2000/svg"
 width="1280.000000pt" height="960.000000pt" viewBox="0 0 1280.000000 960.000000"
 preserveAspectRatio="xMidYMid meet">

<g transform="translate(0.000000,960.000000) scale(0.100000,-0.100000)"
fill="#ffffff" stroke="none">
<path d="M3885 9564 c-16 -3 -79 -11 -139 -20 -406 -57 -827 -242 -1161 -511
-849 -683 -1150 -1828 -749 -2843 184 -465 529 -882 956 -1156 58 -38 121 -77
139 -87 l32 -18 -339 -342 c-187 -188 -376 -387 -420 -442 -555 -695 -696
-1624 -373 -2452 119 -304 306 -589 544 -828 133 -134 222 -209 365 -307 730
-499 1676 -565 2475 -173 411 202 766 524 1009 915 36 58 69 112 75 120 7 12
81 -56 358 -331 347 -344 426 -416 578 -521 734 -507 1690 -578 2490 -183 625
308 1099 877 1283 1540 185 664 89 1378 -263 1955 -199 328 -520 646 -841 836
-54 32 -101 59 -103 61 -3 2 157 166 355 366 453 455 539 564 695 880 123 251
196 495 235 787 20 158 15 521 -11 680 -110 688 -504 1297 -1091 1686 -124 82
-366 202 -509 253 -137 49 -305 91 -462 118 -154 26 -589 26 -752 0 -731 -116
-1359 -539 -1741 -1173 l-63 -105 -361 359 c-453 449 -582 550 -901 703 -218
104 -413 167 -660 211 -85 15 -167 20 -365 23 -140 2 -268 1 -285 -1z m480
-596 c329 -36 683 -188 949 -408 39 -32 625 -613 1302 -1292 1016 -1018 1242
-1250 1297 -1328 103 -146 207 -360 266 -546 111 -351 110 -348 92 -355 -9 -4
-78 -18 -155 -33 -113 -22 -329 -85 -407 -120 -14 -6 -18 4 -24 71 -29 327
-168 618 -401 843 -245 235 -557 360 -898 360 -192 -1 -337 -28 -504 -95 -158
-64 -279 -146 -441 -298 -329 -309 -692 -479 -1123 -526 -483 -53 -995 100
-1373 409 -94 77 -257 248 -326 340 -496 668 -492 1587 11 2250 327 430 833
705 1364 739 124 8 223 5 371 -11z m4450 7 c251 -18 571 -124 800 -265 166
-102 351 -263 476 -416 189 -231 322 -510 387 -813 24 -117 26 -144 27 -366 0
-162 -4 -263 -14 -310 -65 -338 -163 -566 -354 -825 -85 -114 -944 -983 -965
-975 -7 2 -65 14 -130 25 -160 27 -355 40 -487 33 l-110 -5 596 598 c327 330
617 628 643 663 297 403 344 934 123 1376 -64 129 -133 223 -246 336 -192 191
-398 304 -664 361 -143 30 -378 30 -524 -1 -259 -54 -473 -170 -658 -356 -112
-112 -182 -207 -248 -340 -45 -91 -90 -214 -103 -280 -3 -19 -9 -35 -13 -35
-3 0 -106 100 -227 221 l-222 222 34 76 c277 611 893 1035 1568 1081 109 7
149 6 311 -5z m20 -1176 c296 -91 488 -327 520 -636 14 -139 -36 -326 -119
-451 -28 -42 -162 -184 -360 -382 -173 -173 -317 -312 -319 -310 -2 3 -32 52
-66 110 -82 137 -206 301 -323 426 -109 116 -148 170 -189 260 -42 92 -59 175
-59 290 0 354 237 642 585 710 95 18 241 11 330 -17z m-2292 -2245 c244 -55
437 -231 523 -479 26 -73 28 -92 28 -220 0 -125 -3 -149 -27 -220 -183 -549
-885 -680 -1246 -233 -108 133 -155 272 -155 453 -1 136 20 220 80 336 149
283 479 434 797 363z m-1468 -791 c35 -337 148 -591 360 -811 194 -202 414
-325 687 -383 142 -31 380 -31 518 -1 248 54 436 150 623 318 199 179 237 210
337 277 556 371 1277 414 1880 112 482 -241 842 -690 974 -1210 47 -186 59
-310 53 -525 -9 -289 -58 -498 -178 -750 -405 -849 -1369 -1266 -2264 -980
-206 66 -380 156 -565 293 -72 53 -382 356 -1259 1231 -640 639 -1204 1206
-1253 1261 -150 167 -292 400 -361 591 -31 86 -147 458 -147 471 0 6 33 15 73
22 108 19 322 75 412 109 44 17 85 31 92 31 7 1 14 -22 18 -56z m-1383 -83
c160 -29 357 -43 502 -37 l129 6 -610 -612 c-520 -522 -619 -626 -671 -705
-152 -230 -222 -460 -222 -731 0 -354 123 -661 365 -910 193 -199 410 -319
685 -378 65 -14 127 -18 265 -18 161 1 191 4 285 27 232 58 396 142 571 291
182 155 324 380 394 621 14 50 27 91 28 93 2 1 104 -99 227 -222 l224 -224
-57 -116 c-383 -769 -1224 -1178 -2066 -1005 -558 116 -1046 496 -1301 1015
-310 633 -239 1374 188 1955 48 64 936 970 952 970 3 0 53 -9 112 -20z m570
-1090 c76 -131 211 -308 346 -454 151 -162 208 -273 233 -451 21 -146 -15
-321 -93 -453 -18 -32 -72 -96 -119 -144 -73 -73 -101 -93 -180 -131 -163 -78
-333 -98 -495 -57 -260 66 -468 275 -528 530 -44 185 -4 407 101 568 32 49
657 692 672 692 3 0 32 -45 63 -100z"/>
<path d="M3895 8401 c-536 -99 -944 -497 -1056 -1033 -27 -131 -30 -349 -6
-484 87 -480 441 -882 902 -1023 152 -46 216 -55 390 -55 176 -1 263 13 417
64 181 61 338 157 493 302 216 202 387 317 610 413 55 23 223 80 372 126 l273
84 -653 653 c-400 401 -685 678 -736 717 -140 106 -325 189 -511 230 -117 26
-371 29 -495 6z m450 -605 c151 -48 183 -74 538 -425 180 -179 327 -328 327
-333 0 -4 -33 -26 -72 -49 -156 -90 -318 -213 -469 -355 -47 -45 -107 -96
-133 -114 -449 -308 -1051 -39 -1127 505 -31 219 46 433 216 601 92 92 200
153 327 185 107 27 284 21 393 -15z"/>
<path d="M8525 3899 c-225 -19 -433 -93 -620 -219 -39 -26 -127 -100 -197
-164 -241 -220 -435 -342 -688 -435 -30 -11 -145 -47 -255 -81 -110 -34 -221
-68 -247 -76 l-47 -15 577 -581 c613 -617 743 -741 856 -817 155 -105 332
-176 514 -206 141 -24 399 -17 522 15 241 60 432 165 602 328 201 194 324 418
385 703 24 117 24 371 0 489 -70 332 -244 608 -507 806 -95 72 -267 161 -380
197 -151 49 -352 71 -515 56z m303 -610 c295 -79 508 -342 529 -654 14 -220
-86 -451 -256 -591 -136 -113 -283 -166 -461 -167 -162 0 -289 41 -425 138
-58 42 -674 651 -665 658 3 2 39 23 80 47 159 91 318 212 470 355 47 45 105
95 130 112 180 122 389 158 598 102z"/>
</g>
</svg>
