<svg width="69" height="69" viewBox="0 0 69 69" fill="none" xmlns="http://www.w3.org/2000/svg">
<path d="M58.2187 51.75C57.2578 51.7549 56.3104 51.9766 55.4471 52.3986L46.1742 43.125H38.8125V47.4375H44.3883L52.398 55.4475C51.9766 56.3109 51.7551 57.2581 51.75 58.2188C51.75 59.4981 52.1294 60.7488 52.8402 61.8126C53.551 62.8764 54.5613 63.7055 55.7433 64.1951C56.9253 64.6847 58.2259 64.8128 59.4807 64.5632C60.7356 64.3136 61.8882 63.6975 62.7928 62.7928C63.6975 61.8882 64.3136 60.7356 64.5632 59.4807C64.8128 58.2259 64.6847 56.9253 64.1951 55.7433C63.7055 54.5613 62.8764 53.551 61.8126 52.8402C60.7488 52.1294 59.4981 51.75 58.2187 51.75ZM58.2187 60.375C57.7923 60.375 57.3754 60.2485 57.0208 60.0116C56.6662 59.7747 56.3898 59.4379 56.2266 59.0439C56.0634 58.6499 56.0207 58.2164 56.1039 57.7981C56.1871 57.3798 56.3925 56.9956 56.694 56.694C56.9956 56.3925 57.3798 56.1871 57.7981 56.1039C58.2164 56.0207 58.6499 56.0634 59.0439 56.2266C59.4379 56.3898 59.7747 56.6662 60.0116 57.0208C60.2485 57.3754 60.375 57.7923 60.375 58.2188C60.3745 58.7905 60.1471 59.3386 59.7429 59.7429C59.3386 60.1471 58.7905 60.3745 58.2187 60.375Z" fill="#874CF5"/>
<path d="M58.2188 28.0313C56.8853 28.0353 55.5859 28.452 54.4988 29.2242C53.4117 29.9963 52.5903 31.0861 52.1474 32.3438H38.8125V36.6563H52.1474C52.5447 37.7712 53.2409 38.7555 54.1598 39.5016C55.0786 40.2476 56.1849 40.7268 57.3577 40.8867C58.5304 41.0466 59.7246 40.8811 60.8097 40.4082C61.8948 39.9354 62.829 39.1734 63.5103 38.2055C64.1916 37.2376 64.5938 36.1011 64.6729 34.9201C64.752 33.7391 64.505 32.5591 63.9588 31.5091C63.4127 30.459 62.5884 29.5792 61.5761 28.9658C60.5638 28.3525 59.4024 28.0292 58.2188 28.0313ZM58.2188 36.6563C57.7923 36.6563 57.3754 36.5298 57.0208 36.2929C56.6662 36.0559 56.3898 35.7192 56.2266 35.3252C56.0634 34.9312 56.0207 34.4976 56.1039 34.0793C56.1871 33.6611 56.3925 33.2769 56.694 32.9753C56.9956 32.6738 57.3798 32.4684 57.7981 32.3852C58.2164 32.302 58.6499 32.3447 59.0439 32.5079C59.4379 32.6711 59.7747 32.9475 60.0116 33.3021C60.2485 33.6567 60.375 34.0735 60.375 34.5C60.3745 35.0717 60.1471 35.6199 59.7429 36.0241C59.3386 36.4284 58.7905 36.6557 58.2188 36.6563Z" fill="#874CF5"/>
<path d="M58.2188 4.3125C56.5037 4.31438 54.8595 4.99652 53.6467 6.20923C52.434 7.42195 51.7519 9.06621 51.75 10.7813C51.7574 11.8142 52.0149 12.83 52.5006 13.7418L44.4095 21.5625H38.8125V25.875H46.153L55.6381 16.7058C56.5193 17.0898 57.475 17.2726 58.4357 17.2409C59.3964 17.2091 60.3379 16.9635 61.1917 16.522C62.0455 16.0805 62.7902 15.4542 63.3715 14.6886C63.9528 13.9231 64.3561 13.0376 64.552 12.0966C64.7479 11.1555 64.7316 10.1826 64.5042 9.24871C64.2768 8.31478 63.844 7.4433 63.2374 6.69769C62.6308 5.95208 61.8655 5.35111 60.9974 4.9385C60.1292 4.5259 59.18 4.31204 58.2188 4.3125ZM58.2188 12.9375C57.7923 12.9375 57.3754 12.811 57.0208 12.5741C56.6662 12.3372 56.3898 12.0004 56.2266 11.6064C56.0634 11.2124 56.0207 10.7789 56.1039 10.3606C56.1871 9.94232 56.3925 9.55811 56.694 9.25655C56.9956 8.955 57.3798 8.74963 57.7981 8.66643C58.2164 8.58323 58.6499 8.62593 59.0439 8.78913C59.4379 8.95234 59.7747 9.22871 60.0116 9.5833C60.2485 9.9379 60.375 10.3548 60.375 10.7813C60.3745 11.353 60.1471 11.9011 59.7429 12.3054C59.3386 12.7096 58.7905 12.937 58.2188 12.9375Z" fill="#874CF5"/>
<path d="M38.8125 12.9375H43.125V8.625H38.8125C37.5836 8.62913 36.37 8.89742 35.2539 9.41167C34.1378 9.92593 33.1453 10.6741 32.3437 11.6056C31.5422 10.6741 30.5497 9.92593 29.4336 9.41167C28.3175 8.89742 27.1039 8.62913 25.875 8.625H23.7187C18.5736 8.63071 13.6409 10.6771 10.0028 14.3153C6.36462 17.9534 4.31821 22.8861 4.3125 28.0312V40.9688C4.31821 46.1139 6.36462 51.0466 10.0028 54.6847C13.6409 58.3229 18.5736 60.3693 23.7187 60.375H25.875C27.1039 60.3709 28.3175 60.1026 29.4336 59.5883C30.5497 59.0741 31.5422 58.3259 32.3437 57.3944C33.1453 58.3259 34.1378 59.0741 35.2539 59.5883C36.37 60.1026 37.5836 60.3709 38.8125 60.375H43.125V56.0625H38.8125C37.6692 56.0612 36.573 55.6064 35.7645 54.798C34.9561 53.9895 34.5013 52.8933 34.5 51.75V17.25C34.5013 16.1067 34.9561 15.0105 35.7645 14.2021C36.573 13.3936 37.6692 12.9388 38.8125 12.9375ZM25.875 56.0625H23.7187C20.0929 56.0561 16.5902 54.7456 13.8507 52.3703C11.1112 49.995 9.31756 46.7134 8.7975 43.125H12.9375V38.8125H8.625V30.1875H15.0937C16.8088 30.1856 18.453 29.5035 19.6658 28.2908C20.8785 27.078 21.5606 25.4338 21.5625 23.7188V19.4062H17.25V23.7188C17.2495 24.2905 17.0221 24.8386 16.6179 25.2429C16.2136 25.6471 15.6655 25.8745 15.0937 25.875H8.7975C9.31756 22.2866 11.1112 19.005 13.8507 16.6297C16.5902 14.2544 20.0929 12.9439 23.7187 12.9375H25.875C27.0183 12.9388 28.1145 13.3936 28.9229 14.2021C29.7314 15.0105 30.1862 16.1067 30.1875 17.25V25.875H25.875V30.1875H30.1875V38.8125H25.875C24.16 38.8144 22.5157 39.4965 21.303 40.7092C20.0903 41.922 19.4081 43.5662 19.4062 45.2812V49.5938H23.7187V45.2812C23.7193 44.7095 23.9466 44.1614 24.3509 43.7571C24.7551 43.3529 25.3033 43.1255 25.875 43.125H30.1875V51.75C30.1862 52.8933 29.7314 53.9895 28.9229 54.798C28.1145 55.6064 27.0183 56.0612 25.875 56.0625Z" fill="#874CF5"/>
</svg>
