<svg width="10" height="10" viewBox="0 0 10 10" fill="none" xmlns="http://www.w3.org/2000/svg">
<path d="M7.91675 4.58317H5.41675V2.08317C5.41675 1.97266 5.37285 1.86668 5.29471 1.78854C5.21657 1.7104 5.11059 1.6665 5.00008 1.6665C4.88957 1.6665 4.78359 1.7104 4.70545 1.78854C4.62731 1.86668 4.58341 1.97266 4.58341 2.08317V4.58317H2.08341C1.97291 4.58317 1.86693 4.62707 1.78879 4.70521C1.71065 4.78335 1.66675 4.88933 1.66675 4.99984C1.66675 5.11034 1.71065 5.21633 1.78879 5.29447C1.86693 5.37261 1.97291 5.4165 2.08341 5.4165H4.58341V7.9165C4.58341 8.02701 4.62731 8.13299 4.70545 8.21113C4.78359 8.28927 4.88957 8.33317 5.00008 8.33317C5.11059 8.33317 5.21657 8.28927 5.29471 8.21113C5.37285 8.13299 5.41675 8.02701 5.41675 7.9165V5.4165H7.91675C8.02726 5.4165 8.13324 5.37261 8.21138 5.29447C8.28952 5.21633 8.33342 5.11034 8.33342 4.99984C8.33342 4.88933 8.28952 4.78335 8.21138 4.70521C8.13324 4.62707 8.02726 4.58317 7.91675 4.58317Z" fill="#9C5EFC"/>
</svg>
