<svg width="83" height="83" viewBox="0 0 83 83" fill="none" xmlns="http://www.w3.org/2000/svg">
<path d="M70.55 0H12.45C5.57406 0 0 5.57406 0 12.45V70.55C0 77.4259 5.57406 83 12.45 83H70.55C77.4259 83 83 77.4259 83 70.55V12.45C83 5.57406 77.4259 0 70.55 0Z" fill="#874CF5" fill-opacity="0.64"/>
<path d="M70.8418 24.6407C68.92 25.9155 66.6636 26.5924 64.3574 26.586C66.823 25.1335 68.6691 22.8259 69.5449 20.1016C67.5011 21.8294 64.9257 22.8024 62.25 22.8575C60.4859 21.0507 58.1834 19.8647 55.688 19.4776C53.1926 19.0905 50.639 19.5231 48.4104 20.7104C46.1818 21.8978 44.3983 23.776 43.3277 26.063C42.2571 28.35 41.9571 30.9226 42.4727 33.3946C37.9325 33.1549 33.4936 31.963 29.444 29.8963C25.3944 27.8297 21.8247 24.9344 18.9668 21.3985C17.5683 23.9291 17.1588 26.8887 17.8177 29.7039C18.4766 32.5192 20.1569 34.9897 22.5332 36.6368C20.7398 36.6621 18.9647 36.2738 17.3457 35.502C17.3893 38.1133 18.3074 40.6346 19.9532 42.6624C21.599 44.6903 23.8774 46.1076 26.4238 46.6876C24.7287 47.1302 22.9557 47.1856 21.2363 46.8497C21.9781 49.163 23.4231 51.1873 25.3701 52.6402C27.3171 54.0932 29.6689 54.9024 32.0977 54.9551C26.9681 58.0669 21.0757 59.6943 15.0762 59.6563C20.1008 62.9366 25.9372 64.7582 31.9357 64.9181C37.9342 65.0781 43.8594 63.5702 49.0517 60.5624C54.244 57.5545 58.4997 53.1647 61.3451 47.8816C64.1905 42.5985 65.5139 36.6294 65.168 30.6387C67.3071 28.8894 69.2139 26.8737 70.8418 24.6407Z" fill="white"/>
</svg>
