<svg width="72" height="51" viewBox="0 0 72 51" fill="none" xmlns="http://www.w3.org/2000/svg">
<path d="M70.75 10.8373C70.75 10.8373 70.052 5.92141 67.9021 3.74278C65.1938 0.893798 62.1505 0.893798 60.7266 0.726211C50.7591 0 35.7659 0 35.7659 0H35.7379C35.7379 0 20.7448 0 10.7214 0.726211C9.32537 0.893798 6.28206 0.893798 3.54587 3.74278C1.42393 5.92141 0.725927 10.8373 0.725927 10.8373C0.725927 10.8373 0 16.647 0 22.4287V27.8474C0 33.6291 0.725927 39.4109 0.725927 39.4109C0.725927 39.4109 1.42393 44.3268 3.5738 46.5054C6.28206 49.3544 9.85586 49.2706 11.4473 49.5499C17.171 50.1085 35.7379 50.2761 35.7379 50.2761C35.7379 50.2761 50.7591 50.2482 60.7545 49.522C62.1505 49.3544 65.1938 49.3544 67.93 46.5054C70.0799 44.3268 70.7779 39.4109 70.7779 39.4109C70.7779 39.4109 71.5038 33.6291 71.5038 27.8474V22.4287C71.4759 16.647 70.75 10.8373 70.75 10.8373ZM28.367 34.4112V14.3287L47.6878 24.4119L28.367 34.4112Z" fill="url(#paint0_linear_92_111)"/>
<defs>
<linearGradient id="paint0_linear_92_111" x1="9148.92" y1="9.0497e-05" x2="9148.92" y2="9052.43" gradientUnits="userSpaceOnUse">
<stop stop-color="#874CF5"/>
<stop offset="1" stop-color="#BF171D"/>
</linearGradient>
</defs>
</svg>
