<svg width="66" height="69" viewBox="0 0 66 69" fill="none" xmlns="http://www.w3.org/2000/svg">
<path d="M3 0C2.20437 7.95506e-05 1.44136 0.316176 0.878767 0.878767C0.316176 1.44136 7.95506e-05 2.20437 0 3V51C7.95506e-05 51.7956 0.316176 52.5586 0.878767 53.1212C1.44136 53.6838 2.20437 53.9999 3 54H23.9941V60H11.4902C10.7282 60 9.99445 60.2925 9.43945 60.8145L3.47461 66.4102C2.48161 67.3372 3.14686 69 4.50586 69H61.4941C62.8531 69 63.5184 67.3343 62.5254 66.4043L56.5605 60.8086C56.0025 60.2896 55.2718 60 54.5098 60H41.9941V54H63C63.7956 53.9999 64.5586 53.6838 65.1212 53.1212C65.6838 52.5586 65.9999 51.7956 66 51V3C65.9999 2.20437 65.6838 1.44136 65.1212 0.878767C64.5586 0.316176 63.7956 7.95506e-05 63 0H3ZM6 6H60V48H6V6ZM23.9414 14.9707C23.162 14.9939 22.4223 15.3197 21.8789 15.8789L12.8789 24.8789C12.3165 25.4415 12.0006 26.2045 12.0006 27C12.0006 27.7955 12.3165 28.5585 12.8789 29.1211L21.8789 38.1211C22.1553 38.409 22.4865 38.6389 22.8528 38.7972C23.2192 38.9556 23.6135 39.0393 24.0126 39.0433C24.4118 39.0474 24.8077 38.9718 25.1772 38.8209C25.5468 38.67 25.8825 38.4469 26.1647 38.1647C26.447 37.8825 26.67 37.5468 26.8209 37.1772C26.9718 36.8077 27.0474 36.4118 27.0433 36.0126C27.0393 35.6135 26.9556 35.2192 26.7972 34.8528C26.6389 34.4865 26.409 34.1553 26.1211 33.8789L19.2422 27L26.1211 20.1211C26.5546 19.6997 26.8507 19.1572 26.9706 18.5646C27.0905 17.9721 27.0285 17.3571 26.7929 16.8004C26.5573 16.2436 26.1589 15.771 25.6501 15.4445C25.1413 15.118 24.5457 14.9529 23.9414 14.9707ZM41.9707 14.9707C41.3739 14.9709 40.7907 15.149 40.2957 15.4823C39.8007 15.8157 39.4163 16.2891 39.1917 16.842C38.9671 17.3949 38.9126 18.0023 39.035 18.5864C39.1574 19.1705 39.4512 19.7049 39.8789 20.1211L46.7578 27L39.8789 33.8789C39.591 34.1553 39.3611 34.4865 39.2028 34.8528C39.0444 35.2192 38.9607 35.6135 38.9567 36.0126C38.9526 36.4118 39.0282 36.8077 39.1791 37.1772C39.33 37.5468 39.5531 37.8825 39.8353 38.1647C40.1175 38.4469 40.4532 38.67 40.8228 38.8209C41.1923 38.9718 41.5882 39.0474 41.9874 39.0433C42.3865 39.0393 42.7808 38.9556 43.1472 38.7972C43.5136 38.6389 43.8447 38.409 44.1211 38.1211L53.1211 29.1211C53.6835 28.5585 53.9994 27.7955 53.9994 27C53.9994 26.2045 53.6835 25.4415 53.1211 24.8789L44.1211 15.8789C43.8415 15.5915 43.5072 15.3631 43.1378 15.2071C42.7685 15.0511 42.3716 14.9707 41.9707 14.9707Z" fill="#874CF5"/>
</svg>
